<svg width="302" height="208" viewBox="0 0 302 208" fill="none" xmlns="http://www.w3.org/2000/svg">
<path d="M0 16C0 7.16344 7.16344 0 16 0H286C294.837 0 302 7.16344 302 16V192C302 200.837 294.837 208 286 208H16C7.16344 208 0 200.837 0 192V16Z" fill="#EDFCFD"/>
<path d="M29.248 88.856C28.528 88.856 27.904 88.968 27.376 89.16C26.832 89.352 26.4 89.624 26.048 89.96C25.696 90.296 25.424 90.68 25.248 91.128C25.072 91.576 24.992 92.04 24.992 92.52C24.992 93.096 25.088 93.592 25.296 93.976C25.504 94.36 25.792 94.68 26.16 94.936C26.512 95.192 26.928 95.4 27.408 95.56C27.888 95.72 28.4 95.88 28.944 96.008C29.744 96.216 30.352 96.424 30.768 96.648C31.184 96.872 31.408 97.208 31.408 97.656C31.408 98.152 31.232 98.504 30.88 98.712C30.528 98.936 30.064 99.032 29.52 99.032C29.2 99.032 28.896 99 28.624 98.904C28.336 98.824 28.096 98.696 27.904 98.536C27.696 98.376 27.536 98.184 27.424 97.96C27.296 97.736 27.232 97.496 27.232 97.208L24.72 97.336C24.72 97.96 24.848 98.504 25.088 98.984C25.328 99.464 25.664 99.88 26.096 100.2C26.512 100.52 27.024 100.776 27.6 100.936C28.176 101.096 28.816 101.176 29.52 101.176C30.112 101.176 30.672 101.112 31.216 100.968C31.744 100.824 32.208 100.6 32.608 100.296C33.008 100.008 33.328 99.624 33.568 99.16C33.792 98.712 33.92 98.152 33.92 97.512C33.92 96.984 33.824 96.536 33.632 96.152C33.44 95.784 33.152 95.464 32.8 95.192C32.448 94.936 32.016 94.712 31.52 94.52C31.008 94.328 30.464 94.152 29.856 93.992C29.44 93.896 29.072 93.816 28.784 93.72C28.496 93.624 28.256 93.528 28.064 93.416C27.872 93.304 27.744 93.176 27.648 93.016C27.552 92.856 27.52 92.664 27.52 92.44C27.52 92.024 27.664 91.672 27.968 91.4C28.272 91.144 28.72 91 29.296 91C29.872 91 30.32 91.16 30.64 91.448C30.96 91.752 31.136 92.152 31.152 92.664L33.68 92.536C33.648 91.96 33.536 91.448 33.312 91C33.088 90.552 32.784 90.152 32.4 89.832C32.016 89.512 31.552 89.272 31.024 89.112C30.48 88.952 29.888 88.856 29.248 88.856ZM37.9809 97.608H43.6609V96.68C43.6609 96.04 43.5649 95.464 43.3729 94.952C43.1809 94.44 42.9249 94.008 42.5729 93.656C42.2209 93.304 41.8049 93.048 41.3249 92.856C40.8449 92.664 40.3009 92.568 39.7089 92.568C39.0849 92.568 38.5249 92.68 38.0129 92.872C37.5009 93.064 37.0529 93.352 36.6849 93.72C36.3009 94.104 36.0129 94.552 35.8049 95.08C35.5969 95.608 35.5009 96.2 35.5009 96.872C35.5009 97.544 35.5969 98.136 35.8049 98.664C36.0129 99.208 36.3009 99.656 36.6849 100.024C37.0529 100.408 37.5009 100.696 38.0289 100.888C38.5569 101.08 39.1329 101.176 39.7729 101.176C40.2529 101.176 40.7009 101.112 41.1329 100.984C41.5649 100.856 41.9489 100.664 42.2849 100.424C42.6209 100.184 42.9089 99.896 43.1329 99.576C43.3569 99.256 43.5009 98.888 43.5809 98.488L41.2289 98.376C41.1329 98.664 40.9569 98.888 40.7009 99.048C40.4449 99.208 40.1089 99.288 39.7089 99.288C39.1649 99.288 38.7489 99.144 38.4609 98.84C38.1569 98.536 37.9969 98.12 37.9809 97.608ZM39.6929 94.392C40.2209 94.392 40.6209 94.552 40.8769 94.84C41.1329 95.144 41.2769 95.544 41.3089 96.056H37.9809C38.0129 95.528 38.1729 95.112 38.4769 94.824C38.7809 94.536 39.1809 94.392 39.6929 94.392ZM45.5114 101H47.8474V88.568H45.5114V101ZM50.1676 101H52.5036V88.568H50.1676V101ZM69.8413 95.272V94.472H64.1293V96.648H67.1373C66.9453 97.48 66.5773 98.072 66.0333 98.44C65.4893 98.808 64.8493 98.984 64.1133 98.984C63.5693 98.984 63.0893 98.904 62.6573 98.744C62.2253 98.584 61.8573 98.328 61.5533 97.992C61.2333 97.672 60.9933 97.256 60.8333 96.76C60.6573 96.264 60.5773 95.688 60.5773 95.016C60.5773 93.704 60.8973 92.712 61.5373 92.04C62.1773 91.384 63.0253 91.048 64.1133 91.048C64.9293 91.048 65.6013 91.256 66.1293 91.672C66.6413 92.088 66.9933 92.664 67.1693 93.4L69.7293 92.968C69.5693 92.328 69.3133 91.736 68.9773 91.224C68.6253 90.712 68.2093 90.28 67.7293 89.928C67.2333 89.576 66.6892 89.32 66.0813 89.128C65.4733 88.952 64.8173 88.856 64.1293 88.856C63.2493 88.856 62.4333 89 61.6973 89.272C60.9613 89.56 60.3213 89.96 59.7773 90.488C59.2333 91.016 58.8173 91.656 58.5133 92.424C58.2093 93.192 58.0653 94.056 58.0653 95.016C58.0653 95.976 58.2093 96.84 58.5133 97.608C58.8173 98.376 59.2493 99.016 59.7933 99.544C60.3373 100.072 60.9773 100.472 61.7133 100.76C62.4493 101.048 63.2653 101.176 64.1453 101.176C65.0093 101.176 65.8093 101.048 66.5133 100.76C67.2173 100.472 67.8093 100.072 68.3053 99.56C68.7853 99.048 69.1693 98.424 69.4413 97.688C69.6973 96.968 69.8413 96.168 69.8413 95.272ZM72.945 88.616C72.753 88.616 72.561 88.664 72.401 88.728C72.241 88.808 72.097 88.904 71.969 89.032C71.841 89.16 71.729 89.32 71.665 89.48C71.585 89.656 71.553 89.832 71.553 90.024C71.553 90.408 71.681 90.744 71.953 91.016C72.209 91.288 72.545 91.416 72.945 91.416C73.329 91.416 73.665 91.288 73.937 91.016C74.209 90.744 74.353 90.408 74.353 90.024C74.353 89.64 74.209 89.304 73.937 89.032C73.665 88.76 73.329 88.616 72.945 88.616ZM71.777 101H74.113V92.728H71.777V101ZM80.3053 88.472C79.7773 88.472 79.2973 88.552 78.8813 88.712C78.4653 88.872 78.0973 89.112 77.8093 89.4C77.5053 89.704 77.2653 90.056 77.1053 90.472C76.9453 90.888 76.8653 91.368 76.8653 91.88V92.728H75.3613V94.744H76.8653V101H79.1853V94.744H81.1053V92.728H79.1853V91.816C79.1853 91.432 79.3133 91.112 79.5693 90.872C79.8253 90.632 80.1613 90.504 80.5773 90.504C80.6893 90.504 80.7853 90.52 80.8813 90.52C80.9613 90.52 81.0413 90.536 81.1213 90.536V88.52C80.9933 88.504 80.8813 88.488 80.7533 88.488C80.6253 88.488 80.4813 88.472 80.3053 88.472ZM85.5156 97.816L85.5316 94.744H87.4836V92.728H85.5476L85.5636 89.992H83.2276L83.2116 92.728H81.6916V94.744H83.1956L83.1796 98.376C83.1796 98.856 83.2436 99.272 83.3876 99.624C83.5316 99.976 83.7396 100.264 83.9956 100.488C84.2516 100.712 84.5716 100.888 84.9556 101C85.3236 101.112 85.7396 101.16 86.1876 101.16C86.5076 101.16 86.7476 101.16 86.9396 101.128C87.1316 101.112 87.3076 101.096 87.4836 101.064V98.984C87.3876 99.016 87.2916 99.032 87.1796 99.048C87.0676 99.064 86.9236 99.064 86.7636 99.064C86.4276 99.064 86.1396 98.984 85.8836 98.792C85.6276 98.6 85.5156 98.28 85.5156 97.816ZM92.9284 92.568C92.3204 92.568 91.7444 92.664 91.2324 92.856C90.7044 93.048 90.2564 93.336 89.8884 93.704C89.5044 94.072 89.2164 94.52 89.0084 95.048C88.7844 95.592 88.6884 96.2 88.6884 96.872C88.6884 97.544 88.7844 98.152 89.0084 98.68C89.2164 99.224 89.5044 99.672 89.8884 100.04C90.2724 100.408 90.7204 100.696 91.2324 100.888C91.7444 101.08 92.3204 101.176 92.9284 101.176C93.4404 101.176 93.9044 101.112 94.3524 100.968C94.7844 100.824 95.1684 100.616 95.5204 100.344C95.8724 100.072 96.1604 99.736 96.3844 99.352C96.6084 98.968 96.7524 98.52 96.8484 98.024L94.5764 97.816C94.5124 98.232 94.3364 98.568 94.0484 98.808C93.7604 99.048 93.3764 99.16 92.9284 99.16C92.3844 99.16 91.9364 98.968 91.5844 98.568C91.2324 98.184 91.0564 97.608 91.0564 96.872C91.0564 96.136 91.2324 95.576 91.5844 95.176C91.9364 94.776 92.3844 94.568 92.9284 94.568C93.3764 94.568 93.7444 94.696 94.0324 94.952C94.3204 95.208 94.4964 95.544 94.5604 95.96L96.8484 95.768C96.7684 95.272 96.6084 94.824 96.3844 94.424C96.1604 94.04 95.8724 93.704 95.5204 93.416C95.1684 93.144 94.7844 92.936 94.3364 92.792C93.8884 92.648 93.4244 92.568 92.9284 92.568ZM101.837 92.568C101.293 92.568 100.813 92.664 100.397 92.824C99.9651 93 99.5971 93.224 99.3091 93.512C99.0051 93.8 98.7811 94.104 98.6211 94.456C98.4611 94.808 98.3811 95.176 98.3811 95.528L100.717 95.624C100.717 95.352 100.797 95.096 100.989 94.872C101.165 94.648 101.453 94.536 101.869 94.536C102.573 94.536 102.941 94.968 102.941 95.816V96.136L101.469 96.216C101.021 96.248 100.605 96.296 100.205 96.392C99.8051 96.488 99.4531 96.616 99.1491 96.808C98.8451 97 98.6051 97.256 98.4291 97.576C98.2371 97.896 98.1571 98.28 98.1571 98.728C98.1571 99.528 98.3971 100.136 98.9091 100.552C99.4051 100.968 100.077 101.176 100.909 101.176C101.389 101.176 101.789 101.096 102.141 100.936C102.493 100.776 102.781 100.584 103.021 100.328V101H105.277V95.896C105.277 94.808 104.973 93.976 104.397 93.416C103.805 92.856 102.957 92.568 101.837 92.568ZM101.693 97.752L102.941 97.672V98.024C102.941 98.472 102.797 98.808 102.509 99.032C102.221 99.256 101.869 99.368 101.453 99.368C101.165 99.368 100.941 99.32 100.765 99.208C100.573 99.096 100.493 98.904 100.493 98.616C100.493 98.328 100.605 98.104 100.829 97.976C101.053 97.848 101.341 97.784 101.693 97.752ZM112.039 94.904V92.648C111.399 92.648 110.903 92.76 110.551 92.952C110.199 93.16 109.943 93.4 109.767 93.672V92.728H107.511V101H109.847V96.808C109.847 96.232 110.039 95.784 110.439 95.432C110.823 95.08 111.367 94.904 112.039 94.904ZM119.527 101H121.719V88.568H119.399V93.448C119.175 93.208 118.871 93 118.471 92.824C118.071 92.664 117.607 92.568 117.063 92.568C116.471 92.568 115.927 92.68 115.447 92.872C114.967 93.08 114.551 93.368 114.199 93.752C113.847 94.136 113.559 94.584 113.367 95.112C113.175 95.64 113.079 96.232 113.079 96.872C113.079 97.528 113.175 98.12 113.367 98.648C113.559 99.176 113.847 99.624 114.199 100.008C114.551 100.392 114.967 100.68 115.447 100.872C115.927 101.08 116.471 101.176 117.063 101.176C117.639 101.176 118.151 101.08 118.567 100.872C118.983 100.68 119.303 100.44 119.527 100.152V101ZM117.447 94.568C118.023 94.568 118.487 94.76 118.855 95.128C119.207 95.496 119.399 96.008 119.399 96.68V97.048C119.399 97.72 119.207 98.248 118.855 98.616C118.487 98.984 118.023 99.16 117.447 99.16C116.855 99.16 116.375 98.968 116.007 98.568C115.623 98.184 115.447 97.608 115.447 96.872C115.447 96.136 115.623 95.576 116.007 95.176C116.375 94.776 116.855 94.568 117.447 94.568ZM126.875 92.568C125.819 92.568 125.003 92.808 124.427 93.272C123.851 93.752 123.563 94.376 123.563 95.176C123.563 95.608 123.627 95.96 123.771 96.232C123.899 96.504 124.107 96.728 124.363 96.904C124.619 97.096 124.923 97.24 125.291 97.352C125.643 97.48 126.043 97.592 126.491 97.688C126.779 97.768 127.035 97.832 127.227 97.896C127.419 97.96 127.579 98.024 127.691 98.088C127.803 98.152 127.883 98.232 127.931 98.312C127.963 98.408 127.995 98.504 127.995 98.632C127.995 98.888 127.899 99.064 127.707 99.192C127.515 99.32 127.275 99.384 126.955 99.384C126.539 99.384 126.251 99.304 126.059 99.112C125.867 98.92 125.771 98.68 125.755 98.36L123.419 98.488C123.499 99.352 123.835 100.024 124.443 100.488C125.035 100.952 125.867 101.176 126.939 101.176C128.027 101.176 128.859 100.936 129.451 100.44C130.027 99.944 130.331 99.272 130.331 98.424C130.331 98.056 130.251 97.736 130.123 97.48C129.979 97.224 129.787 97 129.531 96.808C129.275 96.616 128.987 96.456 128.651 96.328C128.299 96.2 127.931 96.088 127.515 95.976C127.259 95.912 127.035 95.864 126.843 95.816C126.635 95.768 126.459 95.704 126.331 95.64C126.187 95.576 126.075 95.512 126.011 95.416C125.931 95.336 125.899 95.224 125.899 95.064C125.899 94.6 126.203 94.36 126.843 94.36C127.195 94.36 127.467 94.456 127.627 94.648C127.787 94.84 127.867 95.08 127.899 95.368L130.219 95.24C130.187 94.856 130.091 94.504 129.931 94.184C129.771 93.864 129.547 93.576 129.275 93.336C128.987 93.096 128.651 92.904 128.251 92.776C127.851 92.648 127.387 92.568 126.875 92.568Z" fill="#282F45"/>
<path d="M28.564 119.388C27.962 119.388 27.444 119.472 26.996 119.626C26.548 119.794 26.184 120.004 25.89 120.27C25.596 120.55 25.372 120.858 25.232 121.222C25.092 121.586 25.022 121.964 25.022 122.356C25.022 122.86 25.106 123.266 25.288 123.588C25.456 123.924 25.708 124.19 26.016 124.4C26.324 124.61 26.674 124.778 27.094 124.904C27.5 125.044 27.934 125.156 28.41 125.268C28.83 125.38 29.222 125.478 29.572 125.576C29.908 125.674 30.202 125.786 30.44 125.926C30.678 126.066 30.86 126.248 30.986 126.444C31.112 126.654 31.182 126.906 31.182 127.214C31.182 127.536 31.112 127.816 31 128.04C30.874 128.264 30.706 128.46 30.482 128.6C30.258 128.74 30.006 128.852 29.712 128.922C29.418 128.992 29.096 129.02 28.76 129.02C28.396 129.02 28.046 128.978 27.738 128.88C27.416 128.796 27.136 128.656 26.898 128.488C26.66 128.32 26.464 128.11 26.324 127.858C26.184 127.606 26.1 127.326 26.072 127.018L24.784 127.088C24.812 127.592 24.924 128.026 25.134 128.404C25.344 128.782 25.624 129.104 25.988 129.356C26.338 129.608 26.744 129.804 27.22 129.944C27.696 130.084 28.2 130.14 28.76 130.14C29.264 130.14 29.754 130.084 30.202 129.972C30.65 129.86 31.056 129.678 31.392 129.426C31.728 129.174 31.994 128.866 32.19 128.474C32.386 128.096 32.484 127.648 32.484 127.116C32.484 126.668 32.4 126.276 32.232 125.968C32.064 125.66 31.826 125.394 31.518 125.17C31.21 124.946 30.832 124.764 30.384 124.61C29.936 124.456 29.432 124.316 28.872 124.176C28.48 124.092 28.116 124.008 27.808 123.924C27.5 123.84 27.234 123.728 27.01 123.588C26.786 123.448 26.604 123.28 26.492 123.084C26.38 122.888 26.324 122.622 26.324 122.314C26.324 121.81 26.506 121.376 26.884 121.026C27.262 120.69 27.836 120.508 28.592 120.508C29.25 120.508 29.782 120.676 30.202 121.012C30.608 121.348 30.832 121.796 30.874 122.384L32.176 122.3C32.148 121.852 32.05 121.432 31.868 121.068C31.672 120.704 31.42 120.41 31.112 120.158C30.79 119.906 30.412 119.724 29.978 119.584C29.544 119.458 29.068 119.388 28.564 119.388ZM35.3949 126.892H40.9109V126.234C40.9109 125.702 40.8269 125.226 40.6869 124.792C40.5329 124.372 40.3229 124.008 40.0429 123.7C39.7629 123.392 39.4129 123.154 39.0069 122.986C38.6009 122.818 38.1389 122.734 37.6349 122.734C37.1309 122.734 36.6549 122.818 36.2349 122.986C35.8009 123.154 35.4229 123.406 35.1149 123.714C34.8069 124.036 34.5549 124.428 34.3869 124.876C34.2049 125.338 34.1209 125.856 34.1209 126.43C34.1209 127.018 34.2049 127.536 34.3869 127.998C34.5549 128.46 34.8069 128.852 35.1149 129.16C35.4229 129.482 35.8009 129.72 36.2349 129.888C36.6689 130.056 37.1449 130.14 37.6629 130.14C38.0689 130.14 38.4469 130.084 38.8109 129.972C39.1609 129.86 39.4689 129.706 39.7489 129.496C40.0289 129.3 40.2529 129.062 40.4489 128.782C40.6309 128.516 40.7569 128.222 40.8409 127.886L39.6369 127.816C39.5109 128.222 39.2729 128.53 38.9369 128.754C38.6009 128.978 38.1669 129.09 37.6349 129.09C36.9909 129.09 36.4729 128.908 36.0669 128.516C35.6469 128.124 35.4229 127.592 35.3949 126.892ZM37.6209 123.784C38.2929 123.784 38.8109 123.994 39.1609 124.386C39.4969 124.778 39.6789 125.296 39.7069 125.912H35.3949C35.4369 125.212 35.6609 124.694 36.0809 124.33C36.4869 123.966 37.0049 123.784 37.6209 123.784ZM42.8684 130H44.0724V119.122H42.8684V130ZM46.5188 130H47.7228V119.122H46.5188V130ZM53.6591 133.57H54.9891L59.4971 122.86H58.1531L56.0111 128.25L53.8551 122.86H52.5111L55.3531 129.608L53.6591 133.57ZM63.9159 122.734C63.3839 122.734 62.9079 122.832 62.4599 123C62.0119 123.168 61.6339 123.42 61.2979 123.742C60.9619 124.064 60.7099 124.456 60.5279 124.904C60.3319 125.352 60.2479 125.87 60.2479 126.43C60.2479 127.004 60.3319 127.522 60.5279 127.97C60.7099 128.432 60.9619 128.824 61.2979 129.146C61.6339 129.468 62.0119 129.72 62.4599 129.888C62.9079 130.056 63.3839 130.14 63.9159 130.14C64.4199 130.14 64.9099 130.056 65.3579 129.888C65.8059 129.72 66.1839 129.468 66.5199 129.146C66.8559 128.824 67.1079 128.432 67.3039 127.97C67.4859 127.522 67.5839 127.004 67.5839 126.43C67.5839 125.87 67.4859 125.352 67.3039 124.904C67.1079 124.456 66.8559 124.064 66.5199 123.742C66.1839 123.42 65.8059 123.168 65.3579 123C64.9099 122.832 64.4199 122.734 63.9159 122.734ZM63.9159 123.784C64.2519 123.784 64.5739 123.854 64.8819 123.966C65.1759 124.092 65.4279 124.26 65.6519 124.484C65.8759 124.708 66.0439 124.988 66.1699 125.31C66.2959 125.646 66.3659 126.01 66.3659 126.43C66.3659 126.85 66.2959 127.228 66.1699 127.55C66.0439 127.886 65.8759 128.166 65.6519 128.39C65.4279 128.614 65.1759 128.796 64.8819 128.908C64.5739 129.034 64.2519 129.09 63.9159 129.09C63.5659 129.09 63.2439 129.034 62.9499 128.908C62.6419 128.796 62.3899 128.614 62.1659 128.39C61.9419 128.166 61.7739 127.886 61.6479 127.55C61.5219 127.228 61.4659 126.85 61.4659 126.43C61.4659 126.01 61.5219 125.646 61.6479 125.31C61.7739 124.988 61.9419 124.708 62.1659 124.484C62.3899 124.26 62.6419 124.092 62.9499 123.966C63.2439 123.854 63.5659 123.784 63.9159 123.784ZM74.2459 130H75.3939V122.86H74.1899V127.032C74.1899 127.298 74.1479 127.55 74.0639 127.788C73.9799 128.026 73.8539 128.236 73.6999 128.418C73.5459 128.6 73.3639 128.74 73.1399 128.852C72.9159 128.964 72.6639 129.006 72.3839 129.006C71.8379 129.006 71.4179 128.838 71.1379 128.502C70.8439 128.166 70.7039 127.69 70.7039 127.102V122.86H69.4999V127.27C69.4999 127.704 69.5559 128.096 69.6819 128.446C69.7939 128.796 69.9759 129.09 70.1999 129.342C70.4239 129.594 70.6899 129.79 71.0119 129.93C71.3339 130.07 71.6979 130.14 72.1039 130.14C72.3979 130.14 72.6639 130.112 72.9019 130.042C73.1259 129.972 73.3359 129.874 73.5179 129.762C73.6859 129.65 73.8399 129.51 73.9659 129.37C74.0779 129.23 74.1759 129.076 74.2459 128.936V130ZM81.1034 123.938V122.776C80.5154 122.776 80.0394 122.902 79.7034 123.14C79.3674 123.378 79.1294 123.644 79.0034 123.938V122.86H77.8274V130H79.0314V125.898C79.0314 125.632 79.0734 125.38 79.1714 125.142C79.2694 124.904 79.4094 124.694 79.5914 124.512C79.7594 124.344 79.9834 124.204 80.2354 124.092C80.4874 123.994 80.7814 123.938 81.1034 123.938ZM93.3691 130H94.7691L90.3871 119.528H89.2951L84.9131 130H86.3131L87.4191 127.34H92.2771L93.3691 130ZM91.8011 126.22H87.8951L89.8551 121.502L91.8011 126.22ZM104.266 122.734C103.678 122.734 103.188 122.874 102.796 123.126C102.39 123.392 102.082 123.728 101.872 124.148C101.648 123.7 101.34 123.364 100.934 123.112C100.528 122.86 100.066 122.734 99.534 122.734C98.974 122.734 98.512 122.86 98.148 123.098C97.784 123.336 97.532 123.616 97.364 123.938V122.86H96.216V130H97.42V125.828C97.42 125.562 97.462 125.31 97.546 125.072C97.63 124.834 97.756 124.624 97.924 124.442C98.078 124.26 98.274 124.12 98.512 124.008C98.736 123.91 99.002 123.854 99.282 123.854C99.786 123.854 100.192 124.036 100.5 124.386C100.808 124.75 100.976 125.226 100.976 125.814V130H102.194V125.66V125.576C102.236 125.1 102.418 124.694 102.726 124.358C103.034 124.022 103.454 123.854 103.986 123.854C104.518 123.854 104.952 124.036 105.26 124.386C105.568 124.75 105.722 125.226 105.722 125.814V130H106.926V125.646C106.926 125.226 106.856 124.834 106.73 124.47C106.59 124.106 106.408 123.798 106.184 123.546C105.946 123.294 105.666 123.084 105.344 122.944C105.008 122.804 104.658 122.734 104.266 122.734ZM111.778 122.734C111.33 122.734 110.938 122.818 110.602 122.958C110.266 123.098 109.972 123.294 109.748 123.518C109.51 123.756 109.328 124.022 109.202 124.316C109.076 124.624 109.02 124.918 109.02 125.226L110.238 125.282C110.238 125.1 110.266 124.918 110.322 124.736C110.378 124.568 110.476 124.4 110.616 124.26C110.742 124.12 110.896 124.008 111.092 123.924C111.288 123.84 111.512 123.798 111.792 123.798C112.296 123.798 112.674 123.952 112.926 124.26C113.164 124.568 113.29 125.002 113.29 125.534V125.87L111.442 125.982C111.064 126.01 110.714 126.066 110.392 126.15C110.07 126.234 109.79 126.36 109.566 126.528C109.328 126.696 109.146 126.92 109.02 127.172C108.88 127.424 108.824 127.746 108.824 128.11C108.824 128.768 109.034 129.272 109.468 129.622C109.888 129.972 110.462 130.14 111.162 130.14C111.61 130.14 112.002 130.056 112.366 129.888C112.716 129.72 113.024 129.468 113.29 129.16V130H114.508V125.506C114.508 124.624 114.27 123.938 113.808 123.462C113.332 122.986 112.66 122.734 111.778 122.734ZM111.596 126.948L113.304 126.836V127.13C113.304 127.494 113.248 127.788 113.15 128.04C113.038 128.292 112.898 128.502 112.73 128.656C112.548 128.824 112.338 128.936 112.1 129.006C111.862 129.076 111.61 129.104 111.344 129.104C110.952 129.104 110.644 129.034 110.406 128.88C110.154 128.74 110.042 128.474 110.042 128.082C110.042 127.69 110.182 127.41 110.462 127.242C110.742 127.074 111.12 126.976 111.596 126.948ZM117.546 129.02L121.34 123.672V122.86H116.216V123.854H119.94L116.132 129.202V130H121.508V129.02H117.546ZM126.355 122.734C125.823 122.734 125.347 122.832 124.899 123C124.451 123.168 124.073 123.42 123.737 123.742C123.401 124.064 123.149 124.456 122.967 124.904C122.771 125.352 122.687 125.87 122.687 126.43C122.687 127.004 122.771 127.522 122.967 127.97C123.149 128.432 123.401 128.824 123.737 129.146C124.073 129.468 124.451 129.72 124.899 129.888C125.347 130.056 125.823 130.14 126.355 130.14C126.859 130.14 127.349 130.056 127.797 129.888C128.245 129.72 128.623 129.468 128.959 129.146C129.295 128.824 129.547 128.432 129.743 127.97C129.925 127.522 130.023 127.004 130.023 126.43C130.023 125.87 129.925 125.352 129.743 124.904C129.547 124.456 129.295 124.064 128.959 123.742C128.623 123.42 128.245 123.168 127.797 123C127.349 122.832 126.859 122.734 126.355 122.734ZM126.355 123.784C126.691 123.784 127.013 123.854 127.321 123.966C127.615 124.092 127.867 124.26 128.091 124.484C128.315 124.708 128.483 124.988 128.609 125.31C128.735 125.646 128.805 126.01 128.805 126.43C128.805 126.85 128.735 127.228 128.609 127.55C128.483 127.886 128.315 128.166 128.091 128.39C127.867 128.614 127.615 128.796 127.321 128.908C127.013 129.034 126.691 129.09 126.355 129.09C126.005 129.09 125.683 129.034 125.389 128.908C125.081 128.796 124.829 128.614 124.605 128.39C124.381 128.166 124.213 127.886 124.087 127.55C123.961 127.228 123.905 126.85 123.905 126.43C123.905 126.01 123.961 125.646 124.087 125.31C124.213 124.988 124.381 124.708 124.605 124.484C124.829 124.26 125.081 124.092 125.389 123.966C125.683 123.854 126.005 123.784 126.355 123.784ZM135.369 122.734C134.795 122.734 134.319 122.86 133.955 123.084C133.591 123.322 133.311 123.602 133.143 123.924V122.86H131.995V130H133.199V125.828C133.199 125.562 133.241 125.31 133.339 125.072C133.423 124.834 133.563 124.624 133.731 124.442C133.899 124.26 134.095 124.12 134.333 124.008C134.571 123.91 134.837 123.854 135.117 123.854C135.649 123.854 136.083 124.036 136.419 124.386C136.755 124.75 136.923 125.226 136.923 125.814V130H138.141V125.66C138.141 125.212 138.071 124.82 137.931 124.456C137.791 124.092 137.595 123.784 137.357 123.532C137.105 123.28 136.811 123.084 136.475 122.944C136.139 122.804 135.761 122.734 135.369 122.734ZM140.737 128.488C140.499 128.488 140.303 128.572 140.163 128.74C140.009 128.908 139.939 129.09 139.939 129.314C139.939 129.538 140.009 129.734 140.177 129.888C140.345 130.042 140.527 130.112 140.751 130.112C140.667 130.714 140.401 131.19 139.925 131.54V132.086C140.485 131.778 140.877 131.386 141.129 130.938C141.381 130.49 141.507 129.986 141.507 129.426C141.507 129.16 141.437 128.936 141.297 128.754C141.157 128.586 140.975 128.488 140.737 128.488ZM147.309 119.486C147.085 119.486 146.903 119.57 146.749 119.724C146.581 119.878 146.511 120.06 146.511 120.284C146.511 120.508 146.581 120.69 146.735 120.844C146.889 120.998 147.085 121.068 147.309 121.068C147.519 121.068 147.701 120.998 147.869 120.844C148.023 120.69 148.107 120.508 148.107 120.284C148.107 120.06 148.023 119.878 147.869 119.724C147.701 119.57 147.519 119.486 147.309 119.486ZM146.693 130H147.897V122.86H146.693V130ZM153.087 129.006C152.905 129.006 152.737 128.992 152.583 128.936C152.429 128.894 152.303 128.824 152.191 128.712C152.079 128.6 151.981 128.46 151.925 128.278C151.855 128.11 151.827 127.886 151.827 127.62L151.855 123.91H153.773V122.86H151.855L151.869 120.396H150.651L150.637 122.86H149.307V123.91H150.637L150.623 127.858C150.623 128.25 150.665 128.6 150.777 128.88C150.875 129.16 151.029 129.398 151.225 129.58C151.421 129.762 151.645 129.888 151.925 129.972C152.191 130.056 152.485 130.098 152.821 130.098C153.045 130.098 153.227 130.098 153.381 130.07C153.521 130.056 153.661 130.042 153.787 130.014V128.936C153.703 128.964 153.591 128.978 153.479 128.992C153.367 129.006 153.227 129.006 153.087 129.006ZM160.037 130H161.185V122.86H159.981V127.032C159.981 127.298 159.939 127.55 159.855 127.788C159.771 128.026 159.645 128.236 159.491 128.418C159.337 128.6 159.155 128.74 158.931 128.852C158.707 128.964 158.455 129.006 158.175 129.006C157.629 129.006 157.209 128.838 156.929 128.502C156.635 128.166 156.495 127.69 156.495 127.102V122.86H155.291V127.27C155.291 127.704 155.347 128.096 155.473 128.446C155.585 128.796 155.767 129.09 155.991 129.342C156.215 129.594 156.481 129.79 156.803 129.93C157.125 130.07 157.489 130.14 157.895 130.14C158.189 130.14 158.455 130.112 158.693 130.042C158.917 129.972 159.127 129.874 159.309 129.762C159.477 129.65 159.631 129.51 159.757 129.37C159.869 129.23 159.967 129.076 160.037 128.936V130ZM166.992 122.734C166.418 122.734 165.942 122.86 165.578 123.084C165.214 123.322 164.934 123.602 164.766 123.924V122.86H163.618V130H164.822V125.828C164.822 125.562 164.864 125.31 164.962 125.072C165.046 124.834 165.186 124.624 165.354 124.442C165.522 124.26 165.718 124.12 165.956 124.008C166.194 123.91 166.46 123.854 166.74 123.854C167.272 123.854 167.706 124.036 168.042 124.386C168.378 124.75 168.546 125.226 168.546 125.814V130H169.764V125.66C169.764 125.212 169.694 124.82 169.554 124.456C169.414 124.092 169.218 123.784 168.98 123.532C168.728 123.28 168.434 123.084 168.098 122.944C167.762 122.804 167.384 122.734 166.992 122.734ZM172.948 126.892H178.464V126.234C178.464 125.702 178.38 125.226 178.24 124.792C178.086 124.372 177.876 124.008 177.596 123.7C177.316 123.392 176.966 123.154 176.56 122.986C176.154 122.818 175.692 122.734 175.188 122.734C174.684 122.734 174.208 122.818 173.788 122.986C173.354 123.154 172.976 123.406 172.668 123.714C172.36 124.036 172.108 124.428 171.94 124.876C171.758 125.338 171.674 125.856 171.674 126.43C171.674 127.018 171.758 127.536 171.94 127.998C172.108 128.46 172.36 128.852 172.668 129.16C172.976 129.482 173.354 129.72 173.788 129.888C174.222 130.056 174.698 130.14 175.216 130.14C175.622 130.14 176 130.084 176.364 129.972C176.714 129.86 177.022 129.706 177.302 129.496C177.582 129.3 177.806 129.062 178.002 128.782C178.184 128.516 178.31 128.222 178.394 127.886L177.19 127.816C177.064 128.222 176.826 128.53 176.49 128.754C176.154 128.978 175.72 129.09 175.188 129.09C174.544 129.09 174.026 128.908 173.62 128.516C173.2 128.124 172.976 127.592 172.948 126.892ZM175.174 123.784C175.846 123.784 176.364 123.994 176.714 124.386C177.05 124.778 177.232 125.296 177.26 125.912H172.948C172.99 125.212 173.214 124.694 173.634 124.33C174.04 123.966 174.558 123.784 175.174 123.784ZM182.619 122.748C181.765 122.748 181.121 122.93 180.673 123.322C180.225 123.714 180.001 124.218 180.001 124.834C180.001 125.198 180.057 125.478 180.183 125.702C180.295 125.926 180.463 126.094 180.687 126.234C180.911 126.374 181.163 126.486 181.457 126.57C181.751 126.654 182.073 126.738 182.423 126.822C182.731 126.906 183.011 126.976 183.235 127.046C183.459 127.116 183.641 127.186 183.781 127.27C183.921 127.354 184.019 127.466 184.089 127.578C184.145 127.704 184.187 127.858 184.187 128.026C184.187 128.39 184.047 128.656 183.767 128.824C183.487 129.006 183.137 129.09 182.717 129.09C182.241 129.09 181.849 128.992 181.569 128.782C181.289 128.586 181.121 128.278 181.065 127.886L179.861 127.97C179.945 128.67 180.239 129.202 180.729 129.58C181.219 129.958 181.877 130.14 182.689 130.14C183.515 130.14 184.173 129.958 184.663 129.566C185.139 129.188 185.391 128.642 185.391 127.928C185.391 127.62 185.321 127.354 185.209 127.13C185.097 126.906 184.929 126.724 184.719 126.57C184.495 126.416 184.243 126.29 183.935 126.178C183.627 126.066 183.277 125.968 182.913 125.87L182.213 125.716C182.003 125.674 181.821 125.618 181.681 125.548C181.527 125.478 181.415 125.38 181.331 125.268C181.247 125.156 181.219 125.016 181.219 124.82C181.219 124.512 181.331 124.26 181.555 124.064C181.779 123.868 182.115 123.784 182.577 123.784C183.025 123.784 183.375 123.882 183.613 124.106C183.837 124.33 183.977 124.61 184.033 124.96L185.237 124.89C185.195 124.582 185.111 124.302 184.985 124.036C184.845 123.784 184.677 123.56 184.467 123.364C184.243 123.168 183.991 123.028 183.683 122.916C183.375 122.804 183.011 122.748 182.619 122.748ZM187.467 128.488C187.229 128.488 187.033 128.572 186.893 128.74C186.739 128.908 186.669 129.09 186.669 129.314C186.669 129.538 186.739 129.734 186.907 129.888C187.075 130.042 187.257 130.112 187.481 130.112C187.397 130.714 187.131 131.19 186.655 131.54V132.086C187.215 131.778 187.607 131.386 187.859 130.938C188.111 130.49 188.237 129.986 188.237 129.426C188.237 129.16 188.167 128.936 188.027 128.754C187.887 128.586 187.705 128.488 187.467 128.488ZM28.186 141.734C27.682 141.734 27.234 141.818 26.814 141.986C26.394 142.154 26.03 142.406 25.722 142.728C25.414 143.05 25.162 143.442 24.994 143.89C24.826 144.352 24.742 144.87 24.742 145.43C24.742 146.018 24.826 146.536 24.994 146.984C25.162 147.446 25.414 147.838 25.722 148.16C26.03 148.482 26.394 148.72 26.814 148.888C27.234 149.056 27.682 149.14 28.186 149.14C28.774 149.14 29.292 149.028 29.712 148.804C30.132 148.58 30.454 148.286 30.65 147.936V149.49C30.65 150.204 30.44 150.75 30.02 151.114C29.6 151.492 29.068 151.674 28.396 151.674C27.822 151.674 27.332 151.548 26.926 151.268C26.506 150.988 26.268 150.61 26.184 150.12L24.98 150.162C25.036 150.54 25.162 150.876 25.344 151.184C25.526 151.492 25.764 151.758 26.058 151.982C26.338 152.206 26.688 152.388 27.08 152.514C27.472 152.64 27.934 152.696 28.438 152.696C28.942 152.696 29.418 152.626 29.838 152.472C30.258 152.332 30.608 152.108 30.916 151.828C31.21 151.548 31.434 151.198 31.602 150.792C31.77 150.386 31.854 149.924 31.854 149.406V141.86H30.72V143.036C30.51 142.672 30.188 142.364 29.754 142.112C29.32 141.86 28.802 141.734 28.186 141.734ZM28.354 142.784C28.676 142.784 28.984 142.84 29.264 142.938C29.544 143.05 29.782 143.204 29.992 143.4C30.188 143.61 30.356 143.862 30.468 144.17C30.58 144.478 30.65 144.842 30.65 145.234V145.654C30.65 146.06 30.58 146.41 30.468 146.718C30.356 147.026 30.188 147.278 29.992 147.474C29.782 147.684 29.544 147.838 29.264 147.936C28.984 148.048 28.676 148.09 28.354 148.09C28.018 148.09 27.696 148.034 27.402 147.922C27.108 147.81 26.856 147.628 26.646 147.404C26.422 147.18 26.254 146.914 26.142 146.578C26.016 146.256 25.96 145.878 25.96 145.444C25.96 145.024 26.016 144.646 26.142 144.31C26.254 143.974 26.422 143.694 26.646 143.47C26.856 143.246 27.108 143.078 27.402 142.966C27.696 142.854 28.018 142.784 28.354 142.784ZM37.4198 141.734C36.8878 141.734 36.4118 141.832 35.9638 142C35.5158 142.168 35.1378 142.42 34.8018 142.742C34.4658 143.064 34.2138 143.456 34.0318 143.904C33.8358 144.352 33.7518 144.87 33.7518 145.43C33.7518 146.004 33.8358 146.522 34.0318 146.97C34.2138 147.432 34.4658 147.824 34.8018 148.146C35.1378 148.468 35.5158 148.72 35.9638 148.888C36.4118 149.056 36.8878 149.14 37.4198 149.14C37.9238 149.14 38.4138 149.056 38.8618 148.888C39.3098 148.72 39.6878 148.468 40.0238 148.146C40.3598 147.824 40.6118 147.432 40.8078 146.97C40.9898 146.522 41.0878 146.004 41.0878 145.43C41.0878 144.87 40.9898 144.352 40.8078 143.904C40.6118 143.456 40.3598 143.064 40.0238 142.742C39.6878 142.42 39.3098 142.168 38.8618 142C38.4138 141.832 37.9238 141.734 37.4198 141.734ZM37.4198 142.784C37.7558 142.784 38.0778 142.854 38.3858 142.966C38.6798 143.092 38.9318 143.26 39.1558 143.484C39.3798 143.708 39.5478 143.988 39.6738 144.31C39.7998 144.646 39.8698 145.01 39.8698 145.43C39.8698 145.85 39.7998 146.228 39.6738 146.55C39.5478 146.886 39.3798 147.166 39.1558 147.39C38.9318 147.614 38.6798 147.796 38.3858 147.908C38.0778 148.034 37.7558 148.09 37.4198 148.09C37.0698 148.09 36.7478 148.034 36.4538 147.908C36.1458 147.796 35.8938 147.614 35.6698 147.39C35.4458 147.166 35.2778 146.886 35.1518 146.55C35.0258 146.228 34.9698 145.85 34.9698 145.43C34.9698 145.01 35.0258 144.646 35.1518 144.31C35.2778 143.988 35.4458 143.708 35.6698 143.484C35.8938 143.26 36.1458 143.092 36.4538 142.966C36.7478 142.854 37.0698 142.784 37.4198 142.784ZM46.2518 141.734C45.7198 141.734 45.2438 141.832 44.7958 142C44.3478 142.168 43.9698 142.42 43.6338 142.742C43.2978 143.064 43.0458 143.456 42.8638 143.904C42.6678 144.352 42.5838 144.87 42.5838 145.43C42.5838 146.004 42.6678 146.522 42.8638 146.97C43.0458 147.432 43.2978 147.824 43.6338 148.146C43.9698 148.468 44.3478 148.72 44.7958 148.888C45.2438 149.056 45.7198 149.14 46.2518 149.14C46.7558 149.14 47.2458 149.056 47.6938 148.888C48.1418 148.72 48.5198 148.468 48.8558 148.146C49.1918 147.824 49.4438 147.432 49.6398 146.97C49.8218 146.522 49.9198 146.004 49.9198 145.43C49.9198 144.87 49.8218 144.352 49.6398 143.904C49.4438 143.456 49.1918 143.064 48.8558 142.742C48.5198 142.42 48.1418 142.168 47.6938 142C47.2458 141.832 46.7558 141.734 46.2518 141.734ZM46.2518 142.784C46.5878 142.784 46.9098 142.854 47.2178 142.966C47.5118 143.092 47.7638 143.26 47.9878 143.484C48.2118 143.708 48.3798 143.988 48.5058 144.31C48.6318 144.646 48.7018 145.01 48.7018 145.43C48.7018 145.85 48.6318 146.228 48.5058 146.55C48.3798 146.886 48.2118 147.166 47.9878 147.39C47.7638 147.614 47.5118 147.796 47.2178 147.908C46.9098 148.034 46.5878 148.09 46.2518 148.09C45.9018 148.09 45.5798 148.034 45.2858 147.908C44.9778 147.796 44.7258 147.614 44.5018 147.39C44.2778 147.166 44.1098 146.886 43.9838 146.55C43.8578 146.228 43.8018 145.85 43.8018 145.43C43.8018 145.01 43.8578 144.646 43.9838 144.31C44.1098 143.988 44.2778 143.708 44.5018 143.484C44.7258 143.26 44.9778 143.092 45.2858 142.966C45.5798 142.854 45.9018 142.784 46.2518 142.784ZM54.8598 141.734C54.3558 141.734 53.9078 141.818 53.4878 141.986C53.0678 142.154 52.7038 142.406 52.3958 142.728C52.0878 143.05 51.8358 143.442 51.6678 143.89C51.4998 144.352 51.4158 144.87 51.4158 145.43C51.4158 146.018 51.4998 146.536 51.6678 146.984C51.8358 147.446 52.0878 147.838 52.3958 148.16C52.7038 148.482 53.0678 148.72 53.4878 148.888C53.9078 149.056 54.3558 149.14 54.8598 149.14C55.4478 149.14 55.9658 149.028 56.3858 148.804C56.8058 148.58 57.1278 148.286 57.3238 147.936V149.49C57.3238 150.204 57.1138 150.75 56.6938 151.114C56.2738 151.492 55.7418 151.674 55.0698 151.674C54.4958 151.674 54.0058 151.548 53.5998 151.268C53.1798 150.988 52.9418 150.61 52.8578 150.12L51.6538 150.162C51.7098 150.54 51.8358 150.876 52.0178 151.184C52.1998 151.492 52.4378 151.758 52.7318 151.982C53.0118 152.206 53.3618 152.388 53.7538 152.514C54.1458 152.64 54.6078 152.696 55.1118 152.696C55.6158 152.696 56.0918 152.626 56.5118 152.472C56.9318 152.332 57.2818 152.108 57.5898 151.828C57.8838 151.548 58.1078 151.198 58.2758 150.792C58.4438 150.386 58.5278 149.924 58.5278 149.406V141.86H57.3938V143.036C57.1838 142.672 56.8618 142.364 56.4278 142.112C55.9938 141.86 55.4758 141.734 54.8598 141.734ZM55.0278 142.784C55.3498 142.784 55.6578 142.84 55.9378 142.938C56.2178 143.05 56.4558 143.204 56.6658 143.4C56.8618 143.61 57.0298 143.862 57.1418 144.17C57.2538 144.478 57.3238 144.842 57.3238 145.234V145.654C57.3238 146.06 57.2538 146.41 57.1418 146.718C57.0298 147.026 56.8618 147.278 56.6658 147.474C56.4558 147.684 56.2178 147.838 55.9378 147.936C55.6578 148.048 55.3498 148.09 55.0278 148.09C54.6918 148.09 54.3698 148.034 54.0758 147.922C53.7818 147.81 53.5298 147.628 53.3198 147.404C53.0958 147.18 52.9278 146.914 52.8158 146.578C52.6898 146.256 52.6338 145.878 52.6338 145.444C52.6338 145.024 52.6898 144.646 52.8158 144.31C52.9278 143.974 53.0958 143.694 53.3198 143.47C53.5298 143.246 53.7818 143.078 54.0758 142.966C54.3698 142.854 54.6918 142.784 55.0278 142.784ZM60.9016 149H62.1056V138.122H60.9016V149ZM65.35 145.892H70.866V145.234C70.866 144.702 70.782 144.226 70.642 143.792C70.488 143.372 70.278 143.008 69.998 142.7C69.718 142.392 69.368 142.154 68.962 141.986C68.556 141.818 68.094 141.734 67.59 141.734C67.086 141.734 66.61 141.818 66.19 141.986C65.756 142.154 65.378 142.406 65.07 142.714C64.762 143.036 64.51 143.428 64.342 143.876C64.16 144.338 64.076 144.856 64.076 145.43C64.076 146.018 64.16 146.536 64.342 146.998C64.51 147.46 64.762 147.852 65.07 148.16C65.378 148.482 65.756 148.72 66.19 148.888C66.624 149.056 67.1 149.14 67.618 149.14C68.024 149.14 68.402 149.084 68.766 148.972C69.116 148.86 69.424 148.706 69.704 148.496C69.984 148.3 70.208 148.062 70.404 147.782C70.586 147.516 70.712 147.222 70.796 146.886L69.592 146.816C69.466 147.222 69.228 147.53 68.892 147.754C68.556 147.978 68.122 148.09 67.59 148.09C66.946 148.09 66.428 147.908 66.022 147.516C65.602 147.124 65.378 146.592 65.35 145.892ZM67.576 142.784C68.248 142.784 68.766 142.994 69.116 143.386C69.452 143.778 69.634 144.296 69.662 144.912H65.35C65.392 144.212 65.616 143.694 66.036 143.33C66.442 142.966 66.96 142.784 67.576 142.784ZM72.2355 145.906H76.6175V144.772H72.2355V145.906ZM82.152 141.734C81.536 141.734 81.004 141.86 80.57 142.112C80.136 142.364 79.814 142.672 79.618 143.036V141.86H78.47V152.57H79.674V147.936C79.87 148.286 80.192 148.58 80.612 148.804C81.032 149.028 81.536 149.14 82.152 149.14C82.628 149.14 83.09 149.056 83.51 148.888C83.93 148.72 84.294 148.482 84.602 148.16C84.91 147.838 85.148 147.446 85.33 146.984C85.498 146.536 85.596 146.018 85.596 145.43C85.596 144.87 85.498 144.352 85.33 143.89C85.148 143.442 84.91 143.05 84.602 142.728C84.294 142.406 83.93 142.154 83.51 141.986C83.09 141.818 82.628 141.734 82.152 141.734ZM81.97 142.784C82.306 142.784 82.614 142.854 82.908 142.966C83.202 143.078 83.454 143.246 83.678 143.47C83.888 143.694 84.056 143.974 84.182 144.31C84.294 144.646 84.364 145.024 84.364 145.444C84.364 145.878 84.294 146.256 84.182 146.578C84.056 146.914 83.888 147.18 83.678 147.404C83.454 147.628 83.202 147.81 82.908 147.922C82.614 148.034 82.306 148.09 81.97 148.09C81.634 148.09 81.34 148.048 81.06 147.936C80.78 147.838 80.528 147.684 80.332 147.474C80.136 147.278 79.968 147.026 79.856 146.718C79.744 146.41 79.688 146.06 79.688 145.654V145.234C79.688 144.842 79.744 144.478 79.856 144.17C79.968 143.862 80.136 143.61 80.332 143.4C80.528 143.204 80.78 143.05 81.06 142.938C81.34 142.84 81.634 142.784 81.97 142.784ZM87.5618 149H88.7658V138.122H87.5618V149ZM93.6901 141.734C93.2421 141.734 92.8501 141.818 92.5141 141.958C92.1781 142.098 91.8841 142.294 91.6601 142.518C91.4221 142.756 91.2401 143.022 91.1141 143.316C90.9881 143.624 90.9321 143.918 90.9321 144.226L92.1501 144.282C92.1501 144.1 92.1781 143.918 92.2341 143.736C92.2901 143.568 92.3881 143.4 92.5281 143.26C92.6541 143.12 92.8081 143.008 93.0041 142.924C93.2001 142.84 93.4241 142.798 93.7041 142.798C94.2081 142.798 94.5861 142.952 94.8381 143.26C95.0761 143.568 95.2021 144.002 95.2021 144.534V144.87L93.3541 144.982C92.9761 145.01 92.6261 145.066 92.3041 145.15C91.9821 145.234 91.7021 145.36 91.4781 145.528C91.2401 145.696 91.0581 145.92 90.9321 146.172C90.7921 146.424 90.7361 146.746 90.7361 147.11C90.7361 147.768 90.9461 148.272 91.3801 148.622C91.8001 148.972 92.3741 149.14 93.0741 149.14C93.5221 149.14 93.9141 149.056 94.2781 148.888C94.6281 148.72 94.9361 148.468 95.2021 148.16V149H96.4201V144.506C96.4201 143.624 96.1821 142.938 95.7201 142.462C95.2441 141.986 94.5721 141.734 93.6901 141.734ZM93.5081 145.948L95.2161 145.836V146.13C95.2161 146.494 95.1601 146.788 95.0621 147.04C94.9501 147.292 94.8101 147.502 94.6421 147.656C94.4601 147.824 94.2501 147.936 94.0121 148.006C93.7741 148.076 93.5221 148.104 93.2561 148.104C92.8641 148.104 92.5561 148.034 92.3181 147.88C92.0661 147.74 91.9541 147.474 91.9541 147.082C91.9541 146.69 92.0941 146.41 92.3741 146.242C92.6541 146.074 93.0321 145.976 93.5081 145.948ZM98.8857 152.57H100.216L104.724 141.86H103.38L101.238 147.25L99.0817 141.86H97.7377L100.58 148.608L98.8857 152.57ZM111.969 141.734C111.521 141.734 111.129 141.818 110.793 141.958C110.457 142.098 110.163 142.294 109.939 142.518C109.701 142.756 109.519 143.022 109.393 143.316C109.267 143.624 109.211 143.918 109.211 144.226L110.429 144.282C110.429 144.1 110.457 143.918 110.513 143.736C110.569 143.568 110.667 143.4 110.807 143.26C110.933 143.12 111.087 143.008 111.283 142.924C111.479 142.84 111.703 142.798 111.983 142.798C112.487 142.798 112.865 142.952 113.117 143.26C113.355 143.568 113.481 144.002 113.481 144.534V144.87L111.633 144.982C111.255 145.01 110.905 145.066 110.583 145.15C110.261 145.234 109.981 145.36 109.757 145.528C109.519 145.696 109.337 145.92 109.211 146.172C109.071 146.424 109.015 146.746 109.015 147.11C109.015 147.768 109.225 148.272 109.659 148.622C110.079 148.972 110.653 149.14 111.353 149.14C111.801 149.14 112.193 149.056 112.557 148.888C112.907 148.72 113.215 148.468 113.481 148.16V149H114.699V144.506C114.699 143.624 114.461 142.938 113.999 142.462C113.523 141.986 112.851 141.734 111.969 141.734ZM111.787 145.948L113.495 145.836V146.13C113.495 146.494 113.439 146.788 113.341 147.04C113.229 147.292 113.089 147.502 112.921 147.656C112.739 147.824 112.529 147.936 112.291 148.006C112.053 148.076 111.801 148.104 111.535 148.104C111.143 148.104 110.835 148.034 110.597 147.88C110.345 147.74 110.233 147.474 110.233 147.082C110.233 146.69 110.373 146.41 110.653 146.242C110.933 146.074 111.311 145.976 111.787 145.948ZM120.453 141.734C119.879 141.734 119.403 141.86 119.039 142.084C118.675 142.322 118.395 142.602 118.227 142.924V141.86H117.079V149H118.283V144.828C118.283 144.562 118.325 144.31 118.423 144.072C118.507 143.834 118.647 143.624 118.815 143.442C118.983 143.26 119.179 143.12 119.417 143.008C119.655 142.91 119.921 142.854 120.201 142.854C120.733 142.854 121.167 143.036 121.503 143.386C121.839 143.75 122.007 144.226 122.007 144.814V149H123.225V144.66C123.225 144.212 123.155 143.82 123.015 143.456C122.875 143.092 122.679 142.784 122.441 142.532C122.189 142.28 121.895 142.084 121.559 141.944C121.223 141.804 120.845 141.734 120.453 141.734ZM131.113 149H132.247V138.122H131.043V142.938C130.847 142.602 130.525 142.308 130.105 142.084C129.685 141.86 129.167 141.734 128.579 141.734C128.075 141.734 127.627 141.818 127.207 141.986C126.787 142.154 126.423 142.406 126.115 142.728C125.807 143.05 125.555 143.442 125.387 143.89C125.219 144.352 125.135 144.87 125.135 145.444C125.135 146.032 125.219 146.55 125.387 146.998C125.555 147.446 125.807 147.838 126.115 148.16C126.423 148.482 126.787 148.72 127.207 148.888C127.627 149.056 128.075 149.14 128.579 149.14C129.195 149.14 129.713 149.028 130.147 148.776C130.581 148.524 130.903 148.216 131.113 147.838V149ZM128.747 142.784C129.069 142.784 129.377 142.84 129.657 142.938C129.937 143.05 130.175 143.204 130.385 143.4C130.581 143.61 130.749 143.862 130.861 144.17C130.973 144.478 131.043 144.828 131.043 145.22V145.64C131.043 146.06 130.973 146.41 130.861 146.718C130.749 147.026 130.581 147.278 130.385 147.474C130.175 147.684 129.937 147.838 129.657 147.936C129.377 148.048 129.069 148.09 128.747 148.09C128.411 148.09 128.089 148.034 127.795 147.922C127.501 147.81 127.249 147.628 127.039 147.404C126.815 147.18 126.647 146.914 126.535 146.578C126.409 146.242 126.353 145.864 126.353 145.43C126.353 145.01 126.409 144.632 126.535 144.296C126.647 143.974 126.815 143.694 127.039 143.47C127.249 143.246 127.501 143.078 127.795 142.966C128.089 142.854 128.411 142.784 128.747 142.784ZM140.236 141.748C139.382 141.748 138.738 141.93 138.29 142.322C137.842 142.714 137.618 143.218 137.618 143.834C137.618 144.198 137.674 144.478 137.8 144.702C137.912 144.926 138.08 145.094 138.304 145.234C138.528 145.374 138.78 145.486 139.074 145.57C139.368 145.654 139.69 145.738 140.04 145.822C140.348 145.906 140.628 145.976 140.852 146.046C141.076 146.116 141.258 146.186 141.398 146.27C141.538 146.354 141.636 146.466 141.706 146.578C141.762 146.704 141.804 146.858 141.804 147.026C141.804 147.39 141.664 147.656 141.384 147.824C141.104 148.006 140.754 148.09 140.334 148.09C139.858 148.09 139.466 147.992 139.186 147.782C138.906 147.586 138.738 147.278 138.682 146.886L137.478 146.97C137.562 147.67 137.856 148.202 138.346 148.58C138.836 148.958 139.494 149.14 140.306 149.14C141.132 149.14 141.79 148.958 142.28 148.566C142.756 148.188 143.008 147.642 143.008 146.928C143.008 146.62 142.938 146.354 142.826 146.13C142.714 145.906 142.546 145.724 142.336 145.57C142.112 145.416 141.86 145.29 141.552 145.178C141.244 145.066 140.894 144.968 140.53 144.87L139.83 144.716C139.62 144.674 139.438 144.618 139.298 144.548C139.144 144.478 139.032 144.38 138.948 144.268C138.864 144.156 138.836 144.016 138.836 143.82C138.836 143.512 138.948 143.26 139.172 143.064C139.396 142.868 139.732 142.784 140.194 142.784C140.642 142.784 140.992 142.882 141.23 143.106C141.454 143.33 141.594 143.61 141.65 143.96L142.854 143.89C142.812 143.582 142.728 143.302 142.602 143.036C142.462 142.784 142.294 142.56 142.084 142.364C141.86 142.168 141.608 142.028 141.3 141.916C140.992 141.804 140.628 141.748 140.236 141.748ZM147.769 148.006C147.587 148.006 147.419 147.992 147.265 147.936C147.111 147.894 146.985 147.824 146.873 147.712C146.761 147.6 146.663 147.46 146.607 147.278C146.537 147.11 146.509 146.886 146.509 146.62L146.537 142.91H148.455V141.86H146.537L146.551 139.396H145.333L145.319 141.86H143.989V142.91H145.319L145.305 146.858C145.305 147.25 145.347 147.6 145.459 147.88C145.557 148.16 145.711 148.398 145.907 148.58C146.103 148.762 146.327 148.888 146.607 148.972C146.873 149.056 147.167 149.098 147.503 149.098C147.727 149.098 147.909 149.098 148.063 149.07C148.203 149.056 148.343 149.042 148.469 149.014V147.936C148.385 147.964 148.273 147.978 148.161 147.992C148.049 148.006 147.909 148.006 147.769 148.006ZM150.827 145.892H156.343V145.234C156.343 144.702 156.259 144.226 156.119 143.792C155.965 143.372 155.755 143.008 155.475 142.7C155.195 142.392 154.845 142.154 154.439 141.986C154.033 141.818 153.571 141.734 153.067 141.734C152.563 141.734 152.087 141.818 151.667 141.986C151.233 142.154 150.855 142.406 150.547 142.714C150.239 143.036 149.987 143.428 149.819 143.876C149.637 144.338 149.553 144.856 149.553 145.43C149.553 146.018 149.637 146.536 149.819 146.998C149.987 147.46 150.239 147.852 150.547 148.16C150.855 148.482 151.233 148.72 151.667 148.888C152.101 149.056 152.577 149.14 153.095 149.14C153.501 149.14 153.879 149.084 154.243 148.972C154.593 148.86 154.901 148.706 155.181 148.496C155.461 148.3 155.685 148.062 155.881 147.782C156.063 147.516 156.189 147.222 156.273 146.886L155.069 146.816C154.943 147.222 154.705 147.53 154.369 147.754C154.033 147.978 153.599 148.09 153.067 148.09C152.423 148.09 151.905 147.908 151.499 147.516C151.079 147.124 150.855 146.592 150.827 145.892ZM153.053 142.784C153.725 142.784 154.243 142.994 154.593 143.386C154.929 143.778 155.111 144.296 155.139 144.912H150.827C150.869 144.212 151.093 143.694 151.513 143.33C151.919 142.966 152.437 142.784 153.053 142.784ZM160.778 141.734C160.33 141.734 159.938 141.818 159.602 141.958C159.266 142.098 158.972 142.294 158.748 142.518C158.51 142.756 158.328 143.022 158.202 143.316C158.076 143.624 158.02 143.918 158.02 144.226L159.238 144.282C159.238 144.1 159.266 143.918 159.322 143.736C159.378 143.568 159.476 143.4 159.616 143.26C159.742 143.12 159.896 143.008 160.092 142.924C160.288 142.84 160.512 142.798 160.792 142.798C161.296 142.798 161.674 142.952 161.926 143.26C162.164 143.568 162.29 144.002 162.29 144.534V144.87L160.442 144.982C160.064 145.01 159.714 145.066 159.392 145.15C159.07 145.234 158.79 145.36 158.566 145.528C158.328 145.696 158.146 145.92 158.02 146.172C157.88 146.424 157.824 146.746 157.824 147.11C157.824 147.768 158.034 148.272 158.468 148.622C158.888 148.972 159.462 149.14 160.162 149.14C160.61 149.14 161.002 149.056 161.366 148.888C161.716 148.72 162.024 148.468 162.29 148.16V149H163.508V144.506C163.508 143.624 163.27 142.938 162.808 142.462C162.332 141.986 161.66 141.734 160.778 141.734ZM160.596 145.948L162.304 145.836V146.13C162.304 146.494 162.248 146.788 162.15 147.04C162.038 147.292 161.898 147.502 161.73 147.656C161.548 147.824 161.338 147.936 161.1 148.006C160.862 148.076 160.61 148.104 160.344 148.104C159.952 148.104 159.644 148.034 159.406 147.88C159.154 147.74 159.042 147.474 159.042 147.082C159.042 146.69 159.182 146.41 159.462 146.242C159.742 146.074 160.12 145.976 160.596 145.948ZM173.938 141.734C173.35 141.734 172.86 141.874 172.468 142.126C172.062 142.392 171.754 142.728 171.544 143.148C171.32 142.7 171.012 142.364 170.606 142.112C170.2 141.86 169.738 141.734 169.206 141.734C168.646 141.734 168.184 141.86 167.82 142.098C167.456 142.336 167.204 142.616 167.036 142.938V141.86H165.888V149H167.092V144.828C167.092 144.562 167.134 144.31 167.218 144.072C167.302 143.834 167.428 143.624 167.596 143.442C167.75 143.26 167.946 143.12 168.184 143.008C168.408 142.91 168.674 142.854 168.954 142.854C169.458 142.854 169.864 143.036 170.172 143.386C170.48 143.75 170.648 144.226 170.648 144.814V149H171.866V144.66V144.576C171.908 144.1 172.09 143.694 172.398 143.358C172.706 143.022 173.126 142.854 173.658 142.854C174.19 142.854 174.624 143.036 174.932 143.386C175.24 143.75 175.394 144.226 175.394 144.814V149H176.598V144.646C176.598 144.226 176.528 143.834 176.402 143.47C176.262 143.106 176.08 142.798 175.856 142.546C175.618 142.294 175.338 142.084 175.016 141.944C174.68 141.804 174.33 141.734 173.938 141.734ZM185.276 141.734C184.772 141.734 184.324 141.818 183.904 141.986C183.484 142.154 183.12 142.406 182.812 142.728C182.504 143.05 182.252 143.442 182.084 143.89C181.916 144.352 181.832 144.87 181.832 145.43C181.832 146.018 181.916 146.536 182.084 146.984C182.252 147.446 182.504 147.838 182.812 148.16C183.12 148.482 183.484 148.72 183.904 148.888C184.324 149.056 184.772 149.14 185.276 149.14C185.864 149.14 186.382 149.028 186.802 148.804C187.222 148.58 187.544 148.286 187.74 147.936V149.49C187.74 150.204 187.53 150.75 187.11 151.114C186.69 151.492 186.158 151.674 185.486 151.674C184.912 151.674 184.422 151.548 184.016 151.268C183.596 150.988 183.358 150.61 183.274 150.12L182.07 150.162C182.126 150.54 182.252 150.876 182.434 151.184C182.616 151.492 182.854 151.758 183.148 151.982C183.428 152.206 183.778 152.388 184.17 152.514C184.562 152.64 185.024 152.696 185.528 152.696C186.032 152.696 186.508 152.626 186.928 152.472C187.348 152.332 187.698 152.108 188.006 151.828C188.3 151.548 188.524 151.198 188.692 150.792C188.86 150.386 188.944 149.924 188.944 149.406V141.86H187.81V143.036C187.6 142.672 187.278 142.364 186.844 142.112C186.41 141.86 185.892 141.734 185.276 141.734ZM185.444 142.784C185.766 142.784 186.074 142.84 186.354 142.938C186.634 143.05 186.872 143.204 187.082 143.4C187.278 143.61 187.446 143.862 187.558 144.17C187.67 144.478 187.74 144.842 187.74 145.234V145.654C187.74 146.06 187.67 146.41 187.558 146.718C187.446 147.026 187.278 147.278 187.082 147.474C186.872 147.684 186.634 147.838 186.354 147.936C186.074 148.048 185.766 148.09 185.444 148.09C185.108 148.09 184.786 148.034 184.492 147.922C184.198 147.81 183.946 147.628 183.736 147.404C183.512 147.18 183.344 146.914 183.232 146.578C183.106 146.256 183.05 145.878 183.05 145.444C183.05 145.024 183.106 144.646 183.232 144.31C183.344 143.974 183.512 143.694 183.736 143.47C183.946 143.246 184.198 143.078 184.492 142.966C184.786 142.854 185.108 142.784 185.444 142.784ZM191.934 138.486C191.71 138.486 191.528 138.57 191.374 138.724C191.206 138.878 191.136 139.06 191.136 139.284C191.136 139.508 191.206 139.69 191.36 139.844C191.514 139.998 191.71 140.068 191.934 140.068C192.144 140.068 192.326 139.998 192.494 139.844C192.648 139.69 192.732 139.508 192.732 139.284C192.732 139.06 192.648 138.878 192.494 138.724C192.326 138.57 192.144 138.486 191.934 138.486ZM191.318 149H192.522V141.86H191.318V149ZM197.838 138.066C197.054 138.066 196.438 138.304 195.99 138.752C195.528 139.214 195.304 139.858 195.304 140.67V141.86H193.918V142.91H195.304V149H196.508V142.91H198.342V141.86H196.508V140.642C196.508 140.166 196.634 139.788 196.9 139.522C197.166 139.256 197.516 139.116 197.964 139.116C198.048 139.116 198.132 139.13 198.188 139.13C198.244 139.13 198.314 139.144 198.37 139.144V138.094C198.286 138.094 198.216 138.08 198.132 138.08C198.048 138.08 197.95 138.066 197.838 138.066ZM202.648 148.006C202.466 148.006 202.298 147.992 202.144 147.936C201.99 147.894 201.864 147.824 201.752 147.712C201.64 147.6 201.542 147.46 201.486 147.278C201.416 147.11 201.388 146.886 201.388 146.62L201.416 142.91H203.334V141.86H201.416L201.43 139.396H200.212L200.198 141.86H198.868V142.91H200.198L200.184 146.858C200.184 147.25 200.226 147.6 200.338 147.88C200.436 148.16 200.59 148.398 200.786 148.58C200.982 148.762 201.206 148.888 201.486 148.972C201.752 149.056 202.046 149.098 202.382 149.098C202.606 149.098 202.788 149.098 202.942 149.07C203.082 149.056 203.222 149.042 203.348 149.014V147.936C203.264 147.964 203.152 147.978 203.04 147.992C202.928 148.006 202.788 148.006 202.648 148.006ZM207.945 141.734C207.441 141.734 206.965 141.818 206.545 141.986C206.111 142.154 205.733 142.392 205.425 142.7C205.117 143.022 204.865 143.414 204.697 143.862C204.515 144.324 204.431 144.842 204.431 145.43C204.431 146.018 204.515 146.55 204.697 147.012C204.865 147.474 205.117 147.866 205.439 148.174C205.747 148.482 206.125 148.72 206.545 148.888C206.965 149.056 207.441 149.14 207.945 149.14C208.365 149.14 208.771 149.084 209.135 148.972C209.499 148.86 209.821 148.678 210.101 148.454C210.381 148.23 210.605 147.964 210.787 147.642C210.969 147.334 211.095 146.97 211.165 146.578L209.989 146.466C209.905 146.97 209.681 147.376 209.317 147.656C208.953 147.95 208.505 148.09 207.945 148.09C207.609 148.09 207.315 148.034 207.035 147.922C206.755 147.81 206.503 147.628 206.307 147.404C206.111 147.18 205.943 146.914 205.831 146.578C205.719 146.242 205.663 145.864 205.663 145.43C205.663 145.01 205.719 144.646 205.831 144.31C205.943 143.974 206.097 143.694 206.307 143.47C206.503 143.246 206.741 143.064 207.021 142.952C207.301 142.84 207.609 142.77 207.945 142.77C208.477 142.77 208.939 142.924 209.317 143.232C209.681 143.54 209.905 143.974 209.975 144.506L211.151 144.408C211.095 143.988 210.969 143.624 210.787 143.288C210.605 142.966 210.381 142.686 210.101 142.448C209.821 142.224 209.485 142.042 209.121 141.916C208.757 141.804 208.365 141.734 207.945 141.734ZM215.479 141.734C215.031 141.734 214.639 141.818 214.303 141.958C213.967 142.098 213.673 142.294 213.449 142.518C213.211 142.756 213.029 143.022 212.903 143.316C212.777 143.624 212.721 143.918 212.721 144.226L213.939 144.282C213.939 144.1 213.967 143.918 214.023 143.736C214.079 143.568 214.177 143.4 214.317 143.26C214.443 143.12 214.597 143.008 214.793 142.924C214.989 142.84 215.213 142.798 215.493 142.798C215.997 142.798 216.375 142.952 216.627 143.26C216.865 143.568 216.991 144.002 216.991 144.534V144.87L215.143 144.982C214.765 145.01 214.415 145.066 214.093 145.15C213.771 145.234 213.491 145.36 213.267 145.528C213.029 145.696 212.847 145.92 212.721 146.172C212.581 146.424 212.525 146.746 212.525 147.11C212.525 147.768 212.735 148.272 213.169 148.622C213.589 148.972 214.163 149.14 214.863 149.14C215.311 149.14 215.703 149.056 216.067 148.888C216.417 148.72 216.725 148.468 216.991 148.16V149H218.209V144.506C218.209 143.624 217.971 142.938 217.509 142.462C217.033 141.986 216.361 141.734 215.479 141.734ZM215.297 145.948L217.005 145.836V146.13C217.005 146.494 216.949 146.788 216.851 147.04C216.739 147.292 216.599 147.502 216.431 147.656C216.249 147.824 216.039 147.936 215.801 148.006C215.563 148.076 215.311 148.104 215.045 148.104C214.653 148.104 214.345 148.034 214.107 147.88C213.855 147.74 213.743 147.474 213.743 147.082C213.743 146.69 213.883 146.41 214.163 146.242C214.443 146.074 214.821 145.976 215.297 145.948ZM223.865 142.938V141.776C223.277 141.776 222.801 141.902 222.465 142.14C222.129 142.378 221.891 142.644 221.765 142.938V141.86H220.589V149H221.793V144.898C221.793 144.632 221.835 144.38 221.933 144.142C222.031 143.904 222.171 143.694 222.353 143.512C222.521 143.344 222.745 143.204 222.997 143.092C223.249 142.994 223.543 142.938 223.865 142.938ZM230.767 149H231.901V138.122H230.697V142.938C230.501 142.602 230.179 142.308 229.759 142.084C229.339 141.86 228.821 141.734 228.233 141.734C227.729 141.734 227.281 141.818 226.861 141.986C226.441 142.154 226.077 142.406 225.769 142.728C225.461 143.05 225.209 143.442 225.041 143.89C224.873 144.352 224.789 144.87 224.789 145.444C224.789 146.032 224.873 146.55 225.041 146.998C225.209 147.446 225.461 147.838 225.769 148.16C226.077 148.482 226.441 148.72 226.861 148.888C227.281 149.056 227.729 149.14 228.233 149.14C228.849 149.14 229.367 149.028 229.801 148.776C230.235 148.524 230.557 148.216 230.767 147.838V149ZM228.401 142.784C228.723 142.784 229.031 142.84 229.311 142.938C229.591 143.05 229.829 143.204 230.039 143.4C230.235 143.61 230.403 143.862 230.515 144.17C230.627 144.478 230.697 144.828 230.697 145.22V145.64C230.697 146.06 230.627 146.41 230.515 146.718C230.403 147.026 230.235 147.278 230.039 147.474C229.829 147.684 229.591 147.838 229.311 147.936C229.031 148.048 228.723 148.09 228.401 148.09C228.065 148.09 227.743 148.034 227.449 147.922C227.155 147.81 226.903 147.628 226.693 147.404C226.469 147.18 226.301 146.914 226.189 146.578C226.063 146.242 226.007 145.864 226.007 145.43C226.007 145.01 226.063 144.632 226.189 144.296C226.301 143.974 226.469 143.694 226.693 143.47C226.903 143.246 227.155 143.078 227.449 142.966C227.743 142.854 228.065 142.784 228.401 142.784ZM236.555 141.748C235.701 141.748 235.057 141.93 234.609 142.322C234.161 142.714 233.937 143.218 233.937 143.834C233.937 144.198 233.993 144.478 234.119 144.702C234.231 144.926 234.399 145.094 234.623 145.234C234.847 145.374 235.099 145.486 235.393 145.57C235.687 145.654 236.009 145.738 236.359 145.822C236.667 145.906 236.947 145.976 237.171 146.046C237.395 146.116 237.577 146.186 237.717 146.27C237.857 146.354 237.955 146.466 238.025 146.578C238.081 146.704 238.123 146.858 238.123 147.026C238.123 147.39 237.983 147.656 237.703 147.824C237.423 148.006 237.073 148.09 236.653 148.09C236.177 148.09 235.785 147.992 235.505 147.782C235.225 147.586 235.057 147.278 235.001 146.886L233.797 146.97C233.881 147.67 234.175 148.202 234.665 148.58C235.155 148.958 235.813 149.14 236.625 149.14C237.451 149.14 238.109 148.958 238.599 148.566C239.075 148.188 239.327 147.642 239.327 146.928C239.327 146.62 239.257 146.354 239.145 146.13C239.033 145.906 238.865 145.724 238.655 145.57C238.431 145.416 238.179 145.29 237.871 145.178C237.563 145.066 237.213 144.968 236.849 144.87L236.149 144.716C235.939 144.674 235.757 144.618 235.617 144.548C235.463 144.478 235.351 144.38 235.267 144.268C235.183 144.156 235.155 144.016 235.155 143.82C235.155 143.512 235.267 143.26 235.491 143.064C235.715 142.868 236.051 142.784 236.513 142.784C236.961 142.784 237.311 142.882 237.549 143.106C237.773 143.33 237.913 143.61 237.969 143.96L239.173 143.89C239.131 143.582 239.047 143.302 238.921 143.036C238.781 142.784 238.613 142.56 238.403 142.364C238.179 142.168 237.927 142.028 237.619 141.916C237.311 141.804 236.947 141.748 236.555 141.748ZM241.417 147.474C241.193 147.474 240.997 147.558 240.843 147.726C240.675 147.894 240.605 148.09 240.605 148.314C240.605 148.538 240.675 148.734 240.843 148.902C240.997 149.07 241.193 149.14 241.417 149.14C241.641 149.14 241.837 149.07 242.005 148.902C242.173 148.734 242.257 148.538 242.257 148.314C242.257 148.09 242.173 147.894 242.005 147.726C241.837 147.558 241.641 147.474 241.417 147.474Z" fill="#6B6F7D"/>
<circle cx="45" cy="45" r="21" fill="white"/>
<circle cx="45.0001" cy="45.0001" r="18.2609" fill="#020202"/>
<rect x="34.209" y="32.5493" width="22.4111" height="25.7312"/>
<circle cx="95" cy="45" r="21" fill="white"/>
<rect x="76.6758" y="26.6753" width="35.6724" height="35.6724" rx="17.8362" fill="black"/>
<rect x="78.2969" y="32.3506" width="32.4295" height="24.3221"/>
<circle cx="145" cy="45" r="21" fill="white"/>
<mask id="mask0" mask-type="alpha" maskUnits="userSpaceOnUse" x="126" y="26" width="38" height="38">
<rect x="126.739" y="26.7393" width="36.5217" height="36.5217" rx="18.2609" fill="white"/>
</mask>
<g mask="url(#mask0)">
<rect x="115.118" y="19.269" width="68.8933" height="51.4625"/>
</g>
<circle cx="195" cy="45" r="21" fill="white"/>
<mask id="mask1" mask-type="alpha" maskUnits="userSpaceOnUse" x="176" y="26" width="38" height="38">
<rect x="176.739" y="26.7393" width="36.5217" height="36.5217" rx="18.2609" fill="white"/>
</mask>
<g mask="url(#mask1)">
<rect x="172.634" y="0.844238" width="69.1597" height="69.1597" transform="rotate(15.4897 172.634 0.844238)"/>
<rect x="176.948" y="4.32812" width="69.1597" height="69.1597" transform="rotate(15.4897 176.948 4.32812)"/>
</g>
<path d="M50.578 166.388C49.962 166.388 49.43 166.472 48.982 166.64C48.52 166.808 48.142 167.018 47.848 167.298C47.54 167.578 47.316 167.914 47.176 168.278C47.022 168.656 46.952 169.048 46.952 169.454C46.952 169.958 47.036 170.378 47.218 170.714C47.4 171.05 47.652 171.316 47.96 171.54C48.268 171.764 48.618 171.932 49.038 172.072C49.458 172.212 49.892 172.338 50.368 172.45C50.76 172.548 51.124 172.646 51.432 172.73C51.74 172.828 51.992 172.94 52.216 173.052C52.426 173.178 52.594 173.332 52.706 173.5C52.818 173.682 52.874 173.906 52.874 174.158C52.874 174.438 52.818 174.662 52.72 174.858C52.608 175.054 52.468 175.222 52.286 175.348C52.09 175.474 51.866 175.558 51.614 175.614C51.362 175.67 51.082 175.698 50.788 175.698C50.452 175.698 50.144 175.656 49.864 175.572C49.584 175.488 49.332 175.376 49.122 175.208C48.912 175.04 48.744 174.844 48.618 174.62C48.492 174.396 48.422 174.144 48.408 173.864L46.714 173.962C46.728 174.48 46.84 174.928 47.05 175.32C47.26 175.712 47.554 176.048 47.918 176.314C48.282 176.594 48.702 176.79 49.192 176.93C49.668 177.07 50.2 177.14 50.788 177.14C51.292 177.14 51.782 177.084 52.244 176.958C52.706 176.846 53.112 176.65 53.448 176.398C53.784 176.146 54.064 175.838 54.26 175.446C54.456 175.054 54.568 174.592 54.568 174.046C54.568 173.598 54.484 173.206 54.316 172.884C54.148 172.562 53.91 172.282 53.602 172.058C53.294 171.834 52.916 171.638 52.468 171.47C52.02 171.316 51.53 171.176 50.984 171.036C50.592 170.952 50.256 170.868 49.976 170.784C49.682 170.7 49.444 170.602 49.248 170.49C49.052 170.378 48.898 170.224 48.8 170.056C48.702 169.888 48.66 169.664 48.66 169.398C48.66 168.95 48.814 168.586 49.15 168.278C49.472 167.984 49.962 167.83 50.606 167.83C51.194 167.83 51.656 167.984 52.02 168.278C52.384 168.586 52.58 168.992 52.608 169.524L54.302 169.426C54.274 168.95 54.176 168.53 53.994 168.152C53.798 167.774 53.546 167.452 53.21 167.186C52.874 166.934 52.496 166.738 52.048 166.598C51.6 166.458 51.11 166.388 50.578 166.388ZM59.4705 175.698C59.1345 175.698 58.8545 175.614 58.6305 175.432C58.3925 175.264 58.2805 174.942 58.2805 174.466L58.2945 171.176H60.1285V169.818H58.3085L58.3225 167.382H56.7405L56.7265 169.818H55.3965V171.176H56.7265L56.7125 174.788C56.7125 175.208 56.7685 175.558 56.8805 175.838C56.9925 176.132 57.1465 176.37 57.3565 176.566C57.5665 176.762 57.8185 176.902 58.1125 176.986C58.4065 177.07 58.7285 177.112 59.0925 177.112C59.3445 177.112 59.5405 177.112 59.7085 177.084C59.8625 177.07 60.0025 177.056 60.1425 177.028V175.628C60.0585 175.656 59.9605 175.67 59.8485 175.684C59.7365 175.698 59.6105 175.698 59.4705 175.698ZM64.2575 169.692C63.8095 169.692 63.4035 169.776 63.0535 169.916C62.6895 170.056 62.3955 170.252 62.1575 170.49C61.9055 170.728 61.7235 170.994 61.5975 171.302C61.4575 171.61 61.4015 171.918 61.4015 172.226L62.9835 172.282C62.9835 171.96 63.0815 171.68 63.2915 171.428C63.4875 171.19 63.8235 171.064 64.2715 171.064C64.7195 171.064 65.0415 171.204 65.2375 171.47C65.4335 171.736 65.5455 172.1 65.5455 172.562V172.772L63.8375 172.87C63.4735 172.898 63.1235 172.94 62.8015 173.024C62.4795 173.108 62.1995 173.248 61.9615 173.416C61.7235 173.584 61.5415 173.808 61.4015 174.074C61.2615 174.34 61.2055 174.662 61.2055 175.04C61.2055 175.712 61.4155 176.23 61.8635 176.594C62.2975 176.958 62.8715 177.14 63.5995 177.14C63.9915 177.14 64.3555 177.07 64.6775 176.93C64.9995 176.79 65.2935 176.608 65.5455 176.356V177H67.1275V172.534C67.1275 171.61 66.8755 170.91 66.3855 170.42C65.8955 169.944 65.1815 169.692 64.2575 169.692ZM64.0615 174.088L65.5595 173.99V174.242C65.5595 174.802 65.3915 175.194 65.0835 175.446C64.7755 175.698 64.3695 175.824 63.8655 175.824C63.5435 175.824 63.2775 175.768 63.0815 175.642C62.8855 175.53 62.7875 175.32 62.7875 175.012C62.7875 174.69 62.8995 174.466 63.1375 174.326C63.3755 174.186 63.6835 174.116 64.0615 174.088ZM72.8935 171.26V169.734C72.3055 169.734 71.8575 169.846 71.5355 170.07C71.1995 170.294 70.9755 170.546 70.8495 170.826V169.818H69.3235V177H70.8915V173.094C70.8915 172.842 70.9335 172.59 71.0315 172.366C71.1155 172.142 71.2555 171.96 71.4235 171.792C71.5915 171.624 71.8015 171.498 72.0535 171.4C72.3055 171.316 72.5855 171.26 72.8935 171.26ZM77.6268 175.698C77.2908 175.698 77.0108 175.614 76.7868 175.432C76.5488 175.264 76.4368 174.942 76.4368 174.466L76.4508 171.176H78.2848V169.818H76.4648L76.4788 167.382H74.8968L74.8828 169.818H73.5528V171.176H74.8828L74.8688 174.788C74.8688 175.208 74.9248 175.558 75.0368 175.838C75.1488 176.132 75.3028 176.37 75.5128 176.566C75.7228 176.762 75.9748 176.902 76.2688 176.986C76.5628 177.07 76.8848 177.112 77.2488 177.112C77.5008 177.112 77.6968 177.112 77.8648 177.084C78.0188 177.07 78.1588 177.056 78.2988 177.028V175.628C78.2148 175.656 78.1168 175.67 78.0048 175.684C77.8928 175.698 77.7668 175.698 77.6268 175.698ZM84.6454 170.686V166.122H83.0774V177H84.5614V176.006C84.7574 176.342 85.0514 176.608 85.4714 176.818C85.8774 177.042 86.3674 177.14 86.9274 177.14C87.4314 177.14 87.8934 177.056 88.3134 176.888C88.7334 176.72 89.0974 176.468 89.4054 176.146C89.7134 175.824 89.9514 175.432 90.1194 174.97C90.2874 174.508 90.3854 173.99 90.3854 173.416C90.3854 172.856 90.2874 172.338 90.1194 171.876C89.9514 171.414 89.7134 171.022 89.4054 170.7C89.0974 170.378 88.7334 170.126 88.3134 169.958C87.8934 169.79 87.4314 169.692 86.9274 169.692C86.3814 169.692 85.9194 169.79 85.5274 169.986C85.1354 170.182 84.8414 170.406 84.6454 170.686ZM86.6754 171.036C86.9834 171.036 87.2634 171.092 87.5154 171.19C87.7674 171.302 87.9914 171.456 88.1874 171.652C88.3694 171.862 88.5094 172.114 88.6214 172.408C88.7334 172.702 88.7894 173.038 88.7894 173.416C88.7894 173.808 88.7334 174.144 88.6214 174.438C88.5094 174.732 88.3694 174.984 88.1874 175.18C87.9914 175.376 87.7674 175.53 87.5154 175.628C87.2634 175.74 86.9834 175.782 86.6754 175.782C86.0874 175.782 85.5974 175.6 85.2194 175.236C84.8274 174.872 84.6454 174.326 84.6454 173.598V173.22C84.6454 172.52 84.8274 171.974 85.2194 171.596C85.5974 171.232 86.0874 171.036 86.6754 171.036ZM96.8022 177H98.2862V169.818H96.7182V173.92C96.7182 174.158 96.6762 174.382 96.6062 174.592C96.5362 174.802 96.4382 174.984 96.2982 175.152C96.1582 175.32 96.0042 175.446 95.8082 175.53C95.6122 175.628 95.4022 175.67 95.1642 175.67C94.6882 175.67 94.3242 175.53 94.0722 175.236C93.8202 174.942 93.7082 174.536 93.7082 174.004V169.818H92.1402V174.242C92.1402 174.69 92.1962 175.082 92.3222 175.432C92.4342 175.796 92.6162 176.09 92.8402 176.342C93.0642 176.594 93.3442 176.79 93.6662 176.93C93.9882 177.07 94.3522 177.14 94.7722 177.14C95.3322 177.14 95.7662 177.028 96.1022 176.804C96.4382 176.58 96.6622 176.342 96.8022 176.062V177ZM100.662 180.57H102.384L106.948 169.818H105.198L103.266 174.732L101.334 169.818H99.584L102.426 176.496L100.662 180.57ZM109.018 166.346C108.738 166.346 108.514 166.444 108.318 166.64C108.122 166.836 108.038 167.06 108.038 167.326C108.038 167.606 108.122 167.83 108.318 168.026C108.514 168.222 108.738 168.306 109.018 168.306C109.284 168.306 109.522 168.222 109.718 168.026C109.914 167.83 110.012 167.606 110.012 167.326C110.012 167.06 109.914 166.836 109.718 166.64C109.522 166.444 109.284 166.346 109.018 166.346ZM108.234 177H109.802V169.818H108.234V177ZM115.659 169.692C115.127 169.692 114.679 169.804 114.343 170C114.007 170.196 113.741 170.462 113.559 170.77V169.818H112.075V177H113.643V172.898C113.643 172.394 113.783 171.988 114.091 171.652C114.399 171.316 114.805 171.148 115.309 171.148C115.785 171.148 116.163 171.302 116.443 171.61C116.723 171.918 116.877 172.352 116.877 172.884V177H118.459V172.674C118.459 172.212 118.389 171.792 118.249 171.428C118.109 171.064 117.913 170.742 117.661 170.49C117.409 170.238 117.115 170.042 116.779 169.902C116.443 169.762 116.065 169.692 115.659 169.692ZM123.671 169.692C123.167 169.692 122.705 169.79 122.285 169.958C121.865 170.126 121.501 170.378 121.193 170.7C120.885 171.022 120.633 171.414 120.465 171.876C120.297 172.338 120.213 172.856 120.213 173.416C120.213 174.004 120.297 174.522 120.465 174.97C120.633 175.432 120.885 175.824 121.193 176.146C121.501 176.468 121.865 176.72 122.285 176.888C122.705 177.056 123.167 177.14 123.671 177.14C124.203 177.14 124.679 177.056 125.071 176.86C125.463 176.664 125.757 176.426 125.953 176.146V177.462C125.953 178.092 125.757 178.568 125.393 178.89C125.029 179.212 124.539 179.366 123.951 179.366C123.419 179.366 122.971 179.254 122.621 179.002C122.271 178.764 122.061 178.428 121.991 178.008L120.423 178.064C120.479 178.456 120.605 178.82 120.801 179.142C120.983 179.464 121.221 179.744 121.515 179.968C121.809 180.192 122.159 180.374 122.579 180.5C122.985 180.64 123.461 180.696 123.993 180.696C124.525 180.696 125.001 180.626 125.435 180.472C125.869 180.318 126.247 180.094 126.555 179.8C126.863 179.52 127.101 179.17 127.269 178.75C127.437 178.33 127.521 177.868 127.521 177.35V169.818H126.037V170.826C125.841 170.504 125.533 170.238 125.127 170.014C124.707 169.804 124.231 169.692 123.671 169.692ZM123.923 171.05C124.511 171.05 124.987 171.246 125.379 171.61C125.757 171.974 125.953 172.52 125.953 173.234V173.612C125.953 174.326 125.757 174.872 125.379 175.236C124.987 175.614 124.511 175.796 123.923 175.796C123.615 175.796 123.321 175.754 123.069 175.642C122.817 175.544 122.593 175.39 122.411 175.18C122.215 174.984 122.075 174.732 121.963 174.438C121.851 174.144 121.809 173.808 121.809 173.416C121.809 173.038 121.851 172.702 121.963 172.408C122.075 172.114 122.215 171.862 122.411 171.666C122.593 171.47 122.817 171.316 123.069 171.204C123.321 171.106 123.615 171.05 123.923 171.05ZM135.99 169.692C135.486 169.692 135.024 169.79 134.604 169.958C134.184 170.126 133.82 170.378 133.512 170.7C133.204 171.022 132.952 171.414 132.784 171.876C132.616 172.338 132.532 172.856 132.532 173.416C132.532 174.004 132.616 174.522 132.784 174.97C132.952 175.432 133.204 175.824 133.512 176.146C133.82 176.468 134.184 176.72 134.604 176.888C135.024 177.056 135.486 177.14 135.99 177.14C136.522 177.14 136.998 177.056 137.39 176.86C137.782 176.664 138.076 176.426 138.272 176.146V177.462C138.272 178.092 138.076 178.568 137.712 178.89C137.348 179.212 136.858 179.366 136.27 179.366C135.738 179.366 135.29 179.254 134.94 179.002C134.59 178.764 134.38 178.428 134.31 178.008L132.742 178.064C132.798 178.456 132.924 178.82 133.12 179.142C133.302 179.464 133.54 179.744 133.834 179.968C134.128 180.192 134.478 180.374 134.898 180.5C135.304 180.64 135.78 180.696 136.312 180.696C136.844 180.696 137.32 180.626 137.754 180.472C138.188 180.318 138.566 180.094 138.874 179.8C139.182 179.52 139.42 179.17 139.588 178.75C139.756 178.33 139.84 177.868 139.84 177.35V169.818H138.356V170.826C138.16 170.504 137.852 170.238 137.446 170.014C137.026 169.804 136.55 169.692 135.99 169.692ZM136.242 171.05C136.83 171.05 137.306 171.246 137.698 171.61C138.076 171.974 138.272 172.52 138.272 173.234V173.612C138.272 174.326 138.076 174.872 137.698 175.236C137.306 175.614 136.83 175.796 136.242 175.796C135.934 175.796 135.64 175.754 135.388 175.642C135.136 175.544 134.912 175.39 134.73 175.18C134.534 174.984 134.394 174.732 134.282 174.438C134.17 174.144 134.128 173.808 134.128 173.416C134.128 173.038 134.17 172.702 134.282 172.408C134.394 172.114 134.534 171.862 134.73 171.666C134.912 171.47 135.136 171.316 135.388 171.204C135.64 171.106 135.934 171.05 136.242 171.05ZM142.814 166.346C142.534 166.346 142.31 166.444 142.114 166.64C141.918 166.836 141.834 167.06 141.834 167.326C141.834 167.606 141.918 167.83 142.114 168.026C142.31 168.222 142.534 168.306 142.814 168.306C143.08 168.306 143.318 168.222 143.514 168.026C143.71 167.83 143.808 167.606 143.808 167.326C143.808 167.06 143.71 166.836 143.514 166.64C143.318 166.444 143.08 166.346 142.814 166.346ZM142.03 177H143.598V169.818H142.03V177ZM148.966 166.052C148.126 166.052 147.454 166.304 146.964 166.794C146.46 167.284 146.222 167.956 146.222 168.824V169.818H144.864V171.176H146.222V177H147.79V171.176H149.554V169.818H147.79V168.782C147.79 168.362 147.902 168.04 148.154 167.788C148.406 167.55 148.728 167.424 149.134 167.424C149.232 167.424 149.316 167.438 149.386 167.438C149.442 167.438 149.512 167.452 149.582 167.452V166.094C149.484 166.08 149.386 166.066 149.302 166.066C149.204 166.066 149.092 166.052 148.966 166.052ZM154.148 175.698C153.812 175.698 153.532 175.614 153.308 175.432C153.07 175.264 152.958 174.942 152.958 174.466L152.972 171.176H154.806V169.818H152.986L153 167.382H151.418L151.404 169.818H150.074V171.176H151.404L151.39 174.788C151.39 175.208 151.446 175.558 151.558 175.838C151.67 176.132 151.824 176.37 152.034 176.566C152.244 176.762 152.496 176.902 152.79 176.986C153.084 177.07 153.406 177.112 153.77 177.112C154.022 177.112 154.218 177.112 154.386 177.084C154.54 177.07 154.68 177.056 154.82 177.028V175.628C154.736 175.656 154.638 175.67 154.526 175.684C154.414 175.698 154.288 175.698 154.148 175.698ZM159.481 169.692C158.949 169.692 158.473 169.776 158.039 169.944C157.591 170.112 157.213 170.364 156.905 170.672C156.583 170.994 156.331 171.386 156.149 171.848C155.967 172.31 155.883 172.828 155.883 173.416C155.883 174.004 155.967 174.536 156.149 174.998C156.331 175.46 156.583 175.852 156.905 176.16C157.227 176.482 157.605 176.72 158.053 176.888C158.487 177.056 158.963 177.14 159.481 177.14C159.915 177.14 160.321 177.084 160.699 176.958C161.063 176.846 161.399 176.664 161.693 176.44C161.973 176.216 162.211 175.936 162.407 175.6C162.589 175.278 162.715 174.914 162.799 174.494L161.259 174.354C161.175 174.802 160.993 175.152 160.685 175.404C160.377 175.656 159.971 175.782 159.481 175.782C159.187 175.782 158.921 175.74 158.683 175.628C158.431 175.53 158.221 175.376 158.053 175.166C157.871 174.97 157.731 174.718 157.633 174.424C157.521 174.144 157.479 173.808 157.479 173.416C157.479 172.66 157.661 172.072 158.039 171.652C158.403 171.246 158.893 171.036 159.481 171.036C159.957 171.036 160.349 171.176 160.671 171.442C160.993 171.708 161.189 172.072 161.245 172.548L162.785 172.408C162.729 171.988 162.603 171.61 162.407 171.274C162.211 170.938 161.973 170.658 161.693 170.42C161.399 170.196 161.063 170.014 160.685 169.888C160.307 169.762 159.901 169.692 159.481 169.692ZM167.111 169.692C166.663 169.692 166.257 169.776 165.907 169.916C165.543 170.056 165.249 170.252 165.011 170.49C164.759 170.728 164.577 170.994 164.451 171.302C164.311 171.61 164.255 171.918 164.255 172.226L165.837 172.282C165.837 171.96 165.935 171.68 166.145 171.428C166.341 171.19 166.677 171.064 167.125 171.064C167.573 171.064 167.895 171.204 168.091 171.47C168.287 171.736 168.399 172.1 168.399 172.562V172.772L166.691 172.87C166.327 172.898 165.977 172.94 165.655 173.024C165.333 173.108 165.053 173.248 164.815 173.416C164.577 173.584 164.395 173.808 164.255 174.074C164.115 174.34 164.059 174.662 164.059 175.04C164.059 175.712 164.269 176.23 164.717 176.594C165.151 176.958 165.725 177.14 166.453 177.14C166.845 177.14 167.209 177.07 167.531 176.93C167.853 176.79 168.147 176.608 168.399 176.356V177H169.981V172.534C169.981 171.61 169.729 170.91 169.239 170.42C168.749 169.944 168.035 169.692 167.111 169.692ZM166.915 174.088L168.413 173.99V174.242C168.413 174.802 168.245 175.194 167.937 175.446C167.629 175.698 167.223 175.824 166.719 175.824C166.397 175.824 166.131 175.768 165.935 175.642C165.739 175.53 165.641 175.32 165.641 175.012C165.641 174.69 165.753 174.466 165.991 174.326C166.229 174.186 166.537 174.116 166.915 174.088ZM175.747 171.26V169.734C175.159 169.734 174.711 169.846 174.389 170.07C174.053 170.294 173.829 170.546 173.703 170.826V169.818H172.177V177H173.745V173.094C173.745 172.842 173.787 172.59 173.885 172.366C173.969 172.142 174.109 171.96 174.277 171.792C174.445 171.624 174.655 171.498 174.907 171.4C175.159 171.316 175.439 171.26 175.747 171.26ZM182.502 177H183.986V166.122H182.418V170.686C182.222 170.406 181.928 170.182 181.536 169.986C181.144 169.79 180.668 169.692 180.136 169.692C179.632 169.692 179.17 169.79 178.75 169.958C178.33 170.126 177.966 170.378 177.658 170.7C177.35 171.022 177.098 171.414 176.93 171.876C176.762 172.338 176.678 172.856 176.678 173.416C176.678 173.99 176.762 174.508 176.93 174.97C177.098 175.432 177.35 175.824 177.658 176.146C177.966 176.468 178.33 176.72 178.75 176.888C179.17 177.056 179.632 177.14 180.136 177.14C180.696 177.14 181.172 177.042 181.592 176.818C181.998 176.608 182.306 176.342 182.502 176.006V177ZM180.388 171.036C180.976 171.036 181.452 171.232 181.844 171.596C182.222 171.974 182.418 172.52 182.418 173.22V173.598C182.418 174.326 182.222 174.872 181.844 175.236C181.452 175.6 180.976 175.782 180.388 175.782C180.08 175.782 179.786 175.74 179.534 175.628C179.282 175.53 179.058 175.376 178.876 175.18C178.68 174.984 178.54 174.732 178.428 174.438C178.316 174.144 178.274 173.808 178.274 173.416C178.274 173.038 178.316 172.702 178.428 172.408C178.54 172.114 178.68 171.862 178.876 171.652C179.058 171.456 179.282 171.302 179.534 171.19C179.786 171.092 180.08 171.036 180.388 171.036ZM188.569 169.692C187.687 169.692 187.015 169.902 186.539 170.294C186.063 170.7 185.839 171.218 185.839 171.862C185.839 172.226 185.895 172.534 186.021 172.758C186.133 172.982 186.315 173.178 186.539 173.318C186.763 173.472 187.015 173.598 187.323 173.696C187.631 173.794 187.967 173.878 188.331 173.962C188.611 174.046 188.863 174.102 189.059 174.158C189.255 174.214 189.423 174.284 189.549 174.354C189.661 174.424 189.745 174.508 189.801 174.606C189.857 174.704 189.885 174.83 189.885 174.97C189.885 175.25 189.759 175.446 189.535 175.586C189.311 175.726 189.017 175.782 188.667 175.782C188.233 175.782 187.897 175.698 187.673 175.516C187.449 175.334 187.309 175.082 187.267 174.746L185.699 174.844C185.783 175.572 186.077 176.132 186.581 176.538C187.085 176.944 187.771 177.14 188.639 177.14C189.507 177.14 190.193 176.944 190.697 176.538C191.201 176.146 191.453 175.572 191.453 174.844C191.453 174.536 191.383 174.256 191.271 174.032C191.145 173.808 190.977 173.612 190.767 173.444C190.543 173.29 190.291 173.15 189.983 173.038C189.675 172.926 189.339 172.828 188.975 172.73C188.723 172.674 188.513 172.632 188.317 172.59C188.121 172.548 187.967 172.492 187.827 172.436C187.687 172.38 187.589 172.296 187.519 172.212C187.435 172.128 187.407 172.002 187.407 171.834C187.407 171.596 187.491 171.4 187.687 171.26C187.869 171.12 188.149 171.036 188.527 171.036C188.919 171.036 189.227 171.134 189.423 171.33C189.619 171.526 189.731 171.764 189.759 172.058L191.327 171.974C191.285 171.666 191.201 171.358 191.075 171.078C190.935 170.798 190.753 170.56 190.529 170.35C190.305 170.154 190.025 169.986 189.703 169.874C189.367 169.762 188.989 169.692 188.569 169.692Z" fill="#0032C9"/>
<path d="M38.3536 172.354C38.5488 172.158 38.5488 171.842 38.3536 171.646L35.1716 168.464C34.9763 168.269 34.6597 168.269 34.4645 168.464C34.2692 168.66 34.2692 168.976 34.4645 169.172L37.2929 172L34.4645 174.828C34.2692 175.024 34.2692 175.34 34.4645 175.536C34.6597 175.731 34.9763 175.731 35.1716 175.536L38.3536 172.354ZM24 172.5L38 172.5L38 171.5L24 171.5L24 172.5Z" fill="#0032C9"/>
<mask id="mask2" mask-type="alpha" maskUnits="userSpaceOnUse" x="0" y="0" width="302" height="208">
<path d="M0 16C0 7.16344 7.16344 0 16 0H286C294.837 0 302 7.16344 302 16V192C302 200.837 294.837 208 286 208H16C7.16344 208 0 200.837 0 192V16Z" fill="#EDFCFD"/>
</mask>
<g mask="url(#mask2)">
<path d="M304.897 131.75L304.897 131.75L287.939 161.125C287.172 162.454 285.14 161.91 285.14 160.375V134C285.14 132.619 284.021 131.5 282.64 131.5H253.463C252.309 131.5 251.587 130.25 252.164 129.25L264.283 108.25L264.283 108.25L281.341 78.7123C282.108 77.3834 284.14 77.9279 284.14 79.4624V106C284.14 107.381 285.259 108.5 286.64 108.5H315.725C316.88 108.5 317.602 109.75 317.024 110.75L304.897 131.75Z" fill="#0D2770" stroke="#074549"/>
</g>
</svg>
