<svg width="131" height="32" viewBox="0 0 131 32" fill="none" xmlns="http://www.w3.org/2000/svg">
<path opacity="0.99" d="M29.4247 0H16.0742V12.02H27.6332L22.9922 20.0334L16.0742 32H29.4347C30.155 31.9974 30.8449 31.7102 31.3532 31.2014C31.8616 30.6926 32.147 30.0037 32.147 29.2855V2.71452C32.147 1.99459 31.8602 1.30414 31.3497 0.795066C30.8391 0.285994 30.1467 0 29.4247 0Z" fill="#0032C9"/>
<path opacity="0.99" d="M4.4651 20.0334L9.10278 12.02L16.0744 8.29302e-06C13.6207 -0.00248173 11.1991 0.555793 8.9956 1.63196C6.79206 2.70812 4.86519 4.27355 3.36296 6.20801C1.86074 8.14247 0.823127 10.3945 0.329813 12.7912C-0.1635 15.1878 -0.0993897 17.6653 0.517221 20.0334C0.877978 21.43 1.4301 22.7704 2.15799 24.0167C3.56683 26.4458 5.59208 28.4624 8.0302 29.8638C10.4683 31.2651 13.2334 32.0019 16.0476 32V20.0334H4.4651Z" fill="#0032C9"/>
<path d="M59.5332 7.8667L59.7274 8.31745L59.5332 7.8667Z" fill="white"/>
<path d="M76.7423 7.84668L76.7356 7.86671L66.3686 31.9769H61.3894L65.5215 22.5779L59.3904 8.31746L59.1995 7.86671H59.1962L59.1895 7.84668H64.2289L64.2356 7.86671L64.4131 8.31746L67.9659 17.4861L71.4885 8.31746L71.6626 7.86671L71.6693 7.84668H76.7423Z" fill="#0032C9"/>
<path d="M87.3068 7.70947V12.0768C85.9942 12.0768 84.9506 12.4106 84.176 13.0784C83.7949 13.409 83.493 13.8205 83.2925 14.2828C83.092 14.7451 82.998 15.2463 83.0174 15.7495V23.8731H78.4434V7.84637H82.86V9.68276C83.2616 9.10422 83.7923 8.62647 84.4104 8.2871C85.0912 7.90424 86.0567 7.7117 87.3068 7.70947Z" fill="#0032C9"/>
<path d="M94.4278 19.4858C94.7399 19.7795 95.1086 20.0071 95.5115 20.1546C95.9144 20.3021 96.3431 20.3665 96.7717 20.3439C97.4313 20.3704 98.0853 20.2132 98.6603 19.8898C99.1381 19.6092 99.4894 19.1561 99.6414 18.6244L104.085 18.8347C103.95 19.5657 103.661 20.2599 103.238 20.8714C102.807 21.4916 102.271 22.0317 101.654 22.4674C100.99 22.934 100.255 23.2903 99.4773 23.5225C98.6394 23.7766 97.768 23.9038 96.8923 23.8998C95.7738 23.9115 94.6623 23.7226 93.6107 23.3422C92.6519 22.9958 91.7801 22.4455 91.0558 21.7295C90.3337 20.999 89.7716 20.127 89.405 19.1686C88.9995 18.0898 88.7996 16.9449 88.8157 15.793C88.7967 14.6353 88.9966 13.4845 89.405 12.4006C89.7732 11.4478 90.334 10.5806 91.0525 9.85307C91.7657 9.1443 92.6217 8.59461 93.5639 8.24038C94.5892 7.85729 95.6769 7.66709 96.7717 7.67944C97.818 7.66574 98.8578 7.84458 99.839 8.20699C100.721 8.54026 101.521 9.05962 102.183 9.72953C102.858 10.4241 103.373 11.257 103.693 12.1703C104.061 13.2157 104.242 14.3177 104.225 15.4257V17.1753H93.5103C93.5066 18.0345 93.8352 18.862 94.4278 19.4858ZM94.4747 11.9332C93.8674 12.5542 93.5264 13.3864 93.5237 14.2537H99.7854C99.7935 13.4207 99.5106 12.6109 98.9851 11.9633C98.4929 11.399 97.7395 11.1185 96.7349 11.1185C95.899 11.0806 95.0818 11.3734 94.4613 11.9332H94.4747Z" fill="#0032C9"/>
<path d="M131.001 14.2035V24.0198H126.43V15.1017C126.43 14.071 126.2 13.2808 125.74 12.731C125.49 12.4508 125.179 12.2314 124.831 12.0896C124.483 11.9478 124.106 11.8874 123.731 11.913C123.375 11.8952 123.019 11.9502 122.685 12.0749C122.351 12.1995 122.046 12.391 121.789 12.6375C121.29 13.1688 120.982 13.8497 120.912 14.5741V24.0198H116.344V15.1017C116.344 14.071 116.114 13.2808 115.655 12.731C115.415 12.4555 115.116 12.2385 114.779 12.0967C114.442 11.9548 114.077 11.892 113.712 11.913C113.311 11.89 112.91 11.9573 112.538 12.1099C112.167 12.2625 111.835 12.4964 111.566 12.7945C111.032 13.4534 110.759 14.2852 110.799 15.1317V24.0198H106.229V7.84622H110.548V9.65257C110.938 9.06351 111.471 8.58317 112.098 8.25691C112.942 7.84979 113.874 7.65818 114.811 7.69931C115.841 7.68297 116.86 7.9119 117.784 8.36709C118.636 8.79558 119.358 9.442 119.877 10.2402C120.375 9.49992 121.033 8.88038 121.802 8.42719C122.734 7.91032 123.791 7.65854 124.856 7.69931C126.716 7.69931 128.204 8.27249 129.32 9.41884C130.436 10.5652 130.996 12.1601 131.001 14.2035Z" fill="#0032C9"/>
<path d="M53.2122 7.84668V8.34751V9.75653C52.6885 9.14304 52.028 8.66046 51.2835 8.34751C50.5376 8.02388 49.7329 7.85681 48.9194 7.8567C47.9092 7.84772 46.9111 8.07651 46.0062 8.52448C45.1433 8.95403 44.3846 9.56588 43.7828 10.3175C43.1715 11.0831 42.7 11.9499 42.3898 12.8784C42.0668 13.8198 41.9027 14.8082 41.9043 15.8033C41.9022 16.8177 42.0604 17.8262 42.3731 18.7916C42.6758 19.7416 43.1477 20.6294 43.7661 21.4126C44.384 22.1995 45.1762 22.833 46.0808 23.2634C46.9853 23.6938 47.9776 23.9095 48.9797 23.8934C49.7867 23.8937 50.5849 23.7266 51.3237 23.4026C52.0368 23.1051 52.6617 22.6304 53.1385 22.0236H53.2022V23.3726V23.8734H57.5217V7.84668H53.2122ZM52.6128 18.4443C52.3102 18.8543 51.9138 19.1863 51.4567 19.4128C50.9995 19.6393 50.4947 19.7537 49.9843 19.7465C49.4755 19.7548 48.9722 19.6409 48.517 19.4142C48.0618 19.1875 47.6681 18.8549 47.3691 18.4443C46.7076 17.6119 46.353 16.5781 46.3645 15.5161C46.3519 14.459 46.7069 13.4302 47.3691 12.6046C47.6706 12.198 48.0653 11.8691 48.5203 11.6455C48.9752 11.4219 49.4771 11.31 49.9843 11.3191C50.4931 11.3109 50.9967 11.4231 51.4536 11.6465C51.9106 11.87 52.3078 12.1983 52.6128 12.6046C53.2888 13.4245 53.655 14.4548 53.6475 15.5161C53.6541 16.5824 53.2883 17.6177 52.6128 18.4443Z" fill="#0032C9"/>
</svg>
