<svg width="61" height="49" viewBox="0 0 61 49" fill="none" xmlns="http://www.w3.org/2000/svg">
<path d="M17.4337 0C14.6218 0 12.1848 1.13954 10.1228 3.03877C8.06073 4.93799 6.74852 7.40698 6.3736 10.0659C5.62377 13.2946 6.18614 15.9535 7.87327 18.2326C9.5604 20.5116 11.9974 21.8411 15.1842 22.031C12.3723 30.0078 7.49836 36.2752 0.374919 41.2132L0 49C8.06073 44.8217 14.2469 39.6938 18.371 33.6163C22.4951 27.7287 25.307 21.0814 26.6192 13.8643C27.369 9.87597 26.8066 6.64729 25.307 3.98838C23.6198 1.32946 20.9954 0 17.4337 0Z" fill="#CED9E8"/>
<path d="M51.4838 0C48.6719 0 46.235 1.13954 44.1729 3.03877C42.1109 4.93799 40.7987 7.40698 40.4238 10.0659C39.6739 13.2946 40.2363 15.9535 41.9234 18.2326C43.6106 20.5116 46.0475 21.8411 49.2343 22.031C46.4224 30.0078 41.5485 36.2752 34.4251 41.2132L34.0502 49C42.1109 44.8217 48.297 39.6938 52.4211 33.6163C56.5452 27.7287 59.3571 21.0814 60.6693 13.8643C61.4192 9.87597 60.8568 6.64729 59.3571 3.98838C57.67 1.32946 55.0455 0 51.4838 0Z" fill="#CED9E8"/>
</svg>
