<svg width="59" height="49" viewBox="0 0 59 49" fill="none" xmlns="http://www.w3.org/2000/svg">
<path d="M0.372715 35.3256C-0.386214 39.314 -0.00675019 42.5426 1.70084 45.2016C3.2187 47.8605 6.06468 49 9.85933 49C12.5156 49 14.7924 48.0504 16.8794 46.1512C18.9665 44.2519 20.2946 41.7829 20.8638 38.9341C21.433 35.8953 20.8638 33.2364 19.1562 30.9574C17.4486 28.6783 15.1718 27.3488 12.1361 26.969C13.2745 23.1705 15.1718 19.7519 17.8281 16.5233C20.2946 13.2946 23.3303 10.4457 27.125 7.78682L27.3147 0C18.9665 4.36822 12.895 9.49613 8.72094 15.5736C4.54683 21.6512 1.70084 28.1085 0.372715 35.3256ZM58.8103 7.78682L59 0C50.6518 4.36822 44.5803 9.49613 40.4062 15.5736C36.2321 21.6512 33.3861 28.1085 32.058 35.3256C31.2991 39.314 31.6785 42.5426 33.3861 45.2016C34.904 47.8605 37.75 49 41.5446 49C44.2009 49 46.4777 48.0504 48.5647 46.1512C50.6518 44.2519 51.9799 41.7829 52.5491 38.9341C53.1183 35.8953 52.5491 33.2364 50.8415 30.9574C49.1339 28.6783 46.8571 27.3488 43.8214 26.969C44.9598 23.1705 46.8571 19.7519 49.5134 16.5233C51.9799 13.2946 55.0156 10.4457 58.8103 7.78682Z" fill="#CED9E8"/>
</svg>
